<?xml version="1.0" encoding="utf-8"?>
<!-- Generator: Adobe Illustrator 15.1.0, SVG Export Plug-In . SVG Version: 6.00 Build 0)  -->
<!DOCTYPE svg PUBLIC "-//W3C//DTD SVG 1.1//EN" "http://www.w3.org/Graphics/SVG/1.1/DTD/svg11.dtd">
<svg version="1.1" id="Layer_1" xmlns="http://www.w3.org/2000/svg" xmlns:xlink="http://www.w3.org/1999/xlink" x="0px" y="0px"
	 width="655px" height="600px" viewBox="0 0 655 600" enable-background="new 0 0 655 600" xml:space="preserve">
<radialGradient id="SVGID_1_" cx="319.4404" cy="256.9463" r="395.469" gradientTransform="matrix(0.6932 0 0 -0.6932 105.4248 477.7802)" gradientUnits="userSpaceOnUse">
	<stop  offset="0.3221" style="stop-color:#FFFFFF"/>
	<stop  offset="1" style="stop-color:#F0ECEA"/>
</radialGradient>
<rect fill="url(#SVGID_1_)" width="653.723" height="599.329"/>
<g>
	<g>
		<defs>
			<rect id="SVGID_2_" x="78.222" y="71.714" width="497.279" height="455.902"/>
		</defs>
		<clipPath id="SVGID_3_">
			<use xlink:href="#SVGID_2_"  overflow="visible"/>
		</clipPath>
		<path clip-path="url(#SVGID_3_)" fill="#C49A6C" d="M428.987,290.114c10.61-3.396,19.736-13.373,19.736-31.201
			c0-23.773-17.19-33.535-46.904-33.535h-10.365h-0.527h-51.916v4.244l13.372,9.125v121.621l-13.372,9.766v3.82h51.916h0.527h10.365
			c37.354,0,54.337-21.438,54.337-45.849C456.156,304.547,440.237,294.782,428.987,290.114 M370,238.961h20.927h0.527h11.215
			c17.828,0,28.439,5.306,28.439,22.074c0,17.191-11.46,23.984-29.289,23.984h-10.365h-0.527H370V238.961z M397.573,360.368h-6.119
			h-0.527H370v-63.037h20.927h0.527h10.365c25.045,0,36.72,12.31,36.72,30.774C438.539,349.757,423.257,360.368,397.573,360.368"/>
	</g>
	<g>
		<defs>
			<rect id="SVGID_4_" x="78.222" y="71.714" width="497.279" height="455.902"/>
		</defs>
		<clipPath id="SVGID_5_">
			<use xlink:href="#SVGID_4_"  overflow="visible"/>
		</clipPath>
		<path clip-path="url(#SVGID_5_)" fill="#C49A6C" d="M294.324,269.471c-17.313-4.646-27.132-8.568-27.132-16.427
			c0-6.606,5.357-13.567,22.313-13.567c23.387,0,34.101,11.605,39.093,22.312h3.577l-2.327-27.669
			c-10.704,0.355-19.272-8.743-42.487-8.743c-24.986,0-39.268,11.781-39.268,27.668c0,17.677,16.244,24.457,36.237,29.632
			c20.351,5.182,33.023,9.818,33.023,19.464c0,8.567-6.25,15.168-23.205,15.168c-23.926,0-37.844-11.781-45.7-22.851h-3.212
			l3.387,27.851c17.318-0.175,22.138,8.752,46.594,8.752c27.851,0,40.525-11.965,40.525-29.813
			C335.743,281.79,315.924,275.358,294.324,269.471"/>
	</g>
	<g>
		<defs>
			<rect id="SVGID_6_" x="78.222" y="71.714" width="497.279" height="455.902"/>
		</defs>
		<clipPath id="SVGID_7_">
			<use xlink:href="#SVGID_6_"  overflow="visible"/>
		</clipPath>
		<polygon clip-path="url(#SVGID_7_)" fill="#C49A6C" points="331.286,345.085 307.089,360.368 300.44,360.368 290.958,360.368 
			273.341,360.368 266.121,360.368 228.556,360.368 228.556,278.45 228.619,278.45 228.619,237.049 241.992,229.197 
			241.992,225.377 228.556,225.377 211.003,225.377 197.565,225.377 197.565,229.197 210.938,237.049 210.938,360.368 
			197.565,370.346 197.565,373.953 259.969,373.953 293.505,373.953 313.928,373.953 324.992,373.953 325.007,373.953 
			330.061,360.368 330.052,360.368 335.743,345.085 		"/>
	</g>
	<g>
		<defs>
			<rect id="SVGID_8_" x="78.222" y="71.714" width="497.279" height="455.902"/>
		</defs>
		<clipPath id="SVGID_9_">
			<use xlink:href="#SVGID_8_"  overflow="visible"/>
		</clipPath>
		<path clip-path="url(#SVGID_9_)" fill="#C49A6C" d="M301.677,513.527c-1.088-0.033-2.155-0.038-3.205-0.016
			c-1.04-0.013-2.064,0.006-3.07,0.047c-2.017,0.082-3.98,0.272-5.902,0.564c-1.931,0.318-3.777,0.581-5.619,1.006
			c-3.662,0.811-7.239,2.071-10.547,3.485c-1.664,0.732-3.273,1.578-4.812,2.54c-0.769,0.479-1.511,0.994-2.228,1.545
			c-0.719,0.553-1.407,1.117-2.01,1.771c1.471,0.018,2.855-0.085,4.188-0.172c1.336-0.093,2.627-0.205,3.876-0.332
			c2.482-0.221,4.88-0.663,7.132-1.083c2.256-0.427,4.386-0.853,6.412-1.296c2.045-0.506,3.985-1.037,5.825-1.527
			c1.835-0.491,3.578-0.977,5.223-1.46c1.651-0.513,3.203-1.021,4.643-1.518c1.444-0.497,2.767-0.973,3.961-1.447
			c0.597-0.238,1.154-0.476,1.672-0.718c0.519-0.243,1-0.486,1.383-0.769c-1.262-0.193-2.43-0.324-3.574-0.425
			C303.881,513.624,302.766,513.56,301.677,513.527"/>
	</g>
	<g>
		<defs>
			<rect id="SVGID_10_" x="78.222" y="71.714" width="497.279" height="455.902"/>
		</defs>
		<clipPath id="SVGID_11_">
			<use xlink:href="#SVGID_10_"  overflow="visible"/>
		</clipPath>
		<path clip-path="url(#SVGID_11_)" fill="#C49A6C" d="M306.463,511.481c-0.866-0.943-1.829-1.938-2.868-3.001
			c-1.132-1.147-2.229-2.262-3.296-3.346c-1.22-1.302-2.408-2.57-3.572-3.813c-1.301-1.399-2.577-2.771-3.825-4.111
			c-1.378-1.537-2.727-3.041-4.051-4.518c-0.699-0.772-1.406-1.58-2.145-2.354c-0.373-0.392-0.746-0.783-1.116-1.172
			c-0.377-0.415-0.752-0.828-1.125-1.239c-0.761-0.832-1.544-1.674-2.356-2.521c-0.813-0.844-1.639-1.721-2.574-2.551
			c-0.008,0.859,0.097,1.705,0.235,2.559c0.138,0.849,0.323,1.688,0.55,2.519c0.457,1.661,1.059,3.282,1.795,4.86
			c0.367,0.79,0.766,1.568,1.194,2.335c0.431,0.76,0.901,1.479,1.396,2.202c0.99,1.446,2.088,2.857,3.293,4.209
			c1.209,1.341,2.509,2.684,3.957,3.848c1.44,1.194,2.994,2.326,4.674,3.399c0.838,0.535,1.707,1.063,2.613,1.569
			c0.914,0.472,1.864,0.926,2.85,1.361c0.986,0.44,2.017,0.862,3.091,1.268c1.075,0.403,2.188,0.795,3.417,1.165
			c-0.233-0.425-0.569-0.854-0.938-1.299C307.294,512.412,306.895,511.954,306.463,511.481"/>
	</g>
	<g>
		<defs>
			<rect id="SVGID_12_" x="78.222" y="71.714" width="497.279" height="455.902"/>
		</defs>
		<clipPath id="SVGID_13_">
			<use xlink:href="#SVGID_12_"  overflow="visible"/>
		</clipPath>
		<path clip-path="url(#SVGID_13_)" fill="#C49A6C" d="M270.051,505.242c0.668-0.483,1.305-0.987,1.858-1.576
			c-1.271-0.233-2.447-0.438-3.606-0.593c-1.162-0.154-2.302-0.27-3.427-0.342c-2.237-0.158-4.453-0.108-6.566-0.097
			c-2.13,0.043-4.232,0.21-6.314,0.472c-1.039,0.131-2.076,0.291-3.107,0.472c-1.02,0.15-2.036,0.332-3.051,0.531
			c-2.024,0.399-4.039,0.894-6.039,1.488c-1.999,0.601-3.986,1.313-5.906,2.049c-1.932,0.758-3.834,1.643-5.693,2.663
			c-0.927,0.514-1.839,1.069-2.734,1.669c-0.895,0.602-1.77,1.23-2.581,1.98c1.471,0.288,2.877,0.433,4.241,0.563
			c1.365,0.125,2.697,0.213,3.992,0.267c1.287,0.068,2.594,0.007,3.846-0.027c1.259-0.045,2.486-0.113,3.688-0.203
			c2.405-0.186,4.688-0.401,6.926-0.799c2.232-0.379,4.363-0.81,6.414-1.296c2.051-0.5,3.987-0.966,5.877-1.599
			c1.887-0.62,3.674-1.277,5.36-1.985c1.687-0.703,3.267-1.469,4.729-2.302C268.689,506.155,269.382,505.727,270.051,505.242"/>
	</g>
	<g>
		<defs>
			<rect id="SVGID_14_" x="78.222" y="71.714" width="497.279" height="455.902"/>
		</defs>
		<clipPath id="SVGID_15_">
			<use xlink:href="#SVGID_14_"  overflow="visible"/>
		</clipPath>
		<path clip-path="url(#SVGID_15_)" fill="#C49A6C" d="M270.874,498.896c-0.504-1.609-1.104-3.235-1.783-4.873
			c-1.355-3.277-2.991-6.605-4.709-10.161c-0.868-1.767-1.779-3.529-2.736-5.31c-0.482-0.878-0.959-1.8-1.445-2.729
			c-0.485-0.933-0.994-1.847-1.514-2.771c-1.033-1.851-2.146-3.686-3.32-5.561c-0.584-0.95-1.191-1.899-1.834-2.847
			c-0.643-0.941-1.303-1.899-2.082-2.814c-0.254,1.045-0.387,2.07-0.48,3.097c-0.095,1.025-0.139,2.042-0.139,3.05
			c0.009,2.02,0.175,4.004,0.488,5.96c0.616,3.919,1.861,7.582,3.522,11.181c0.418,0.896,0.864,1.788,1.341,2.669
			c0.489,0.854,1.012,1.693,1.564,2.526c1.107,1.662,2.339,3.296,3.711,4.877c1.355,1.614,2.926,3.031,4.631,4.464
			c0.857,0.707,1.764,1.398,2.719,2.08c0.956,0.68,1.953,1.354,3.102,1.933c-0.041-0.8-0.198-1.584-0.385-2.37
			C271.336,500.512,271.125,499.698,270.874,498.896"/>
	</g>
	<g>
		<defs>
			<rect id="SVGID_16_" x="78.222" y="71.714" width="497.279" height="455.902"/>
		</defs>
		<clipPath id="SVGID_17_">
			<use xlink:href="#SVGID_16_"  overflow="visible"/>
		</clipPath>
		<path clip-path="url(#SVGID_17_)" fill="#C49A6C" d="M232.166,491.351c0.881-0.468,1.747-0.992,2.589-1.563
			c0.84-0.569,1.654-1.171,2.412-1.894c-0.621-0.189-1.231-0.353-1.834-0.491c-0.598-0.15-1.178-0.296-1.764-0.424
			c-1.166-0.258-2.32-0.467-3.468-0.631c-1.146-0.163-2.286-0.289-3.423-0.381c-0.568-0.046-1.136-0.083-1.702-0.109
			c-0.554-0.035-1.11-0.07-1.67-0.106c-2.226-0.114-4.44-0.112-6.659-0.003c-1.109,0.053-2.22,0.133-3.332,0.238
			c-1.098,0.085-2.19,0.181-3.289,0.305c-2.189,0.247-4.388,0.583-6.59,1.024c-2.201,0.438-4.416,1.001-6.576,1.601
			c-2.168,0.611-4.332,1.354-6.479,2.248c-1.074,0.448-2.142,0.944-3.199,1.49c-1.06,0.545-2.112,1.134-3.127,1.86
			c1.421,0.551,2.79,0.955,4.136,1.315c1.35,0.357,2.666,0.674,3.973,0.923c2.627,0.472,5.219,0.712,7.695,0.867
			c1.246,0.07,2.461,0.123,3.672,0.127c0.598-0.001,1.196-0.003,1.799-0.005c0.596-0.029,1.193-0.06,1.796-0.087
			c2.374-0.142,4.67-0.374,6.894-0.688c4.432-0.616,8.68-1.704,12.568-3.135C228.536,493.117,230.396,492.293,232.166,491.351"/>
	</g>
	<g>
		<defs>
			<rect id="SVGID_18_" x="78.222" y="71.714" width="497.279" height="455.902"/>
		</defs>
		<clipPath id="SVGID_19_">
			<use xlink:href="#SVGID_18_"  overflow="visible"/>
		</clipPath>
		<path clip-path="url(#SVGID_19_)" fill="#C49A6C" d="M237.5,481.88c-0.056-2.01-0.22-4.014-0.468-6.014
			c-0.491-4.006-1.323-7.929-2.207-12.036c-0.465-2.021-0.971-4.038-1.535-6.048c-0.146-0.504-0.29-1.006-0.434-1.505
			c-0.142-0.518-0.285-1.032-0.425-1.544c-0.289-1.033-0.606-2.042-0.937-3.062c-0.647-2.039-1.41-4.021-2.213-6.063
			c-0.396-1.031-0.836-2.038-1.306-3.049c-0.473-1.007-0.975-2.009-1.593-2.995c-0.508,1.104-0.889,2.197-1.221,3.287
			c-0.334,1.09-0.614,2.174-0.846,3.256c-0.457,2.161-0.748,4.312-0.881,6.451c-0.156,2.164-0.113,4.25,0.055,6.333
			c0.17,2.084,0.472,4.154,0.894,6.215c0.214,1.027,0.449,2.063,0.729,3.082c0.291,0.997,0.615,1.991,0.976,2.979
			c0.718,1.98,1.573,3.938,2.575,5.88c0.251,0.482,0.508,0.971,0.781,1.446c0.281,0.466,0.572,0.931,0.873,1.393
			c0.604,0.925,1.248,1.841,1.939,2.749c0.691,0.907,1.436,1.808,2.236,2.695c0.4,0.443,0.81,0.894,1.25,1.32
			c0.447,0.419,0.916,0.833,1.422,1.24c0.199-1.021,0.273-2.021,0.314-3.017C237.521,483.885,237.522,482.893,237.5,481.88"/>
	</g>
	<g>
		<defs>
			<rect id="SVGID_20_" x="78.222" y="71.714" width="497.279" height="455.902"/>
		</defs>
		<clipPath id="SVGID_21_">
			<use xlink:href="#SVGID_20_"  overflow="visible"/>
		</clipPath>
		<path clip-path="url(#SVGID_21_)" fill="#C49A6C" d="M199.21,470.36c1.025-0.429,2.041-0.909,3.052-1.461
			c1.008-0.546,1.998-1.134,2.958-1.857c-0.598-0.27-1.189-0.503-1.779-0.715c-0.576-0.231-1.148-0.438-1.722-0.635
			c-1.147-0.394-2.293-0.733-3.44-1.029c-2.279-0.604-4.621-0.989-6.86-1.388c-2.263-0.374-4.542-0.631-6.841-0.786
			c-1.146-0.082-2.313-0.122-3.457-0.173c-1.139-0.056-2.277-0.093-3.426-0.105c-2.293-0.027-4.607,0.033-6.943,0.19
			c-1.167,0.077-2.344,0.186-3.518,0.313c-1.158,0.11-2.324,0.251-3.49,0.415c-2.332,0.324-4.68,0.78-7.043,1.387
			c-1.182,0.309-2.365,0.662-3.551,1.07c-1.184,0.407-2.371,0.858-3.551,1.463c1.299,0.816,2.582,1.472,3.854,2.073
			c1.272,0.599,2.527,1.146,3.785,1.621c1.248,0.481,2.524,0.876,3.791,1.223c1.263,0.352,2.515,0.659,3.752,0.925
			c2.489,0.526,4.886,0.956,7.33,1.147c2.441,0.194,4.83,0.265,7.17,0.229c4.646-0.039,9.246-0.68,13.586-1.798
			C195.038,471.914,197.153,471.215,199.21,470.36"/>
	</g>
	<g>
		<defs>
			<rect id="SVGID_22_" x="78.222" y="71.714" width="497.279" height="455.902"/>
		</defs>
		<clipPath id="SVGID_23_">
			<use xlink:href="#SVGID_22_"  overflow="visible"/>
		</clipPath>
		<path clip-path="url(#SVGID_23_)" fill="#C49A6C" d="M207.021,460.465c0.417-2.19,0.716-4.369,0.912-6.532
			c0.201-2.163,0.316-4.313,0.363-6.447c0.016-1.089,0.031-2.164,0.047-3.227c0.006-1.078-0.004-2.151-0.026-3.224
			c-0.052-2.142-0.154-4.267-0.325-6.374c-0.164-2.114-0.336-4.271-0.635-6.364c-0.143-1.053-0.309-2.1-0.501-3.141
			c-0.21-1.056-0.417-2.102-0.623-3.142c-0.222-1.059-0.493-2.095-0.802-3.132c-0.308-1.037-0.652-2.065-1.123-3.09
			c-0.739,1.058-1.342,2.112-1.895,3.171c-0.555,1.06-1.054,2.119-1.502,3.185c-0.895,2.128-1.613,4.267-2.177,6.422
			c-0.284,1.08-0.537,2.166-0.752,3.254c-0.199,1.075-0.356,2.146-0.483,3.221c-0.252,2.151-0.369,4.314-0.367,6.487
			c0.004,1.088,0.041,2.176,0.104,3.272c0.068,1.09,0.203,2.147,0.354,3.227c0.312,2.148,0.762,4.302,1.367,6.459
			c0.577,2.188,1.436,4.243,2.43,6.352c0.506,1.048,1.066,2.094,1.685,3.139c0.31,0.521,0.632,1.043,0.978,1.563
			c0.361,0.502,0.748,1.001,1.172,1.498c0.455-1.106,0.776-2.202,1.06-3.293C206.558,462.663,206.806,461.567,207.021,460.465"/>
	</g>
	<g>
		<defs>
			<rect id="SVGID_24_" x="78.222" y="71.714" width="497.279" height="455.902"/>
		</defs>
		<clipPath id="SVGID_25_">
			<use xlink:href="#SVGID_24_"  overflow="visible"/>
		</clipPath>
		<path clip-path="url(#SVGID_25_)" fill="#C49A6C" d="M163.259,445.33c2.316-0.26,4.611-0.686,6.889-1.292
			c1.137-0.307,2.27-0.665,3.396-1.083c1.139-0.425,2.277-0.906,3.408-1.532c-1.129-0.688-2.184-1.31-3.285-1.854
			c-1.094-0.552-2.193-1.053-3.303-1.511c-1.109-0.454-2.226-0.873-3.352-1.259c-1.12-0.391-2.204-0.785-3.322-1.129
			c-2.227-0.701-4.479-1.297-6.768-1.804c-1.127-0.239-2.264-0.481-3.414-0.728c-1.133-0.232-2.275-0.444-3.426-0.639
			c-2.303-0.383-4.635-0.692-6.991-0.918c-2.378-0.21-4.677-0.415-7.075-0.464c-2.383-0.063-4.805-0.002-7.264,0.206
			c-1.229,0.106-2.471,0.262-3.723,0.467c-1.25,0.204-2.505,0.45-3.785,0.854c1.104,1.067,2.25,1.951,3.385,2.786
			c1.138,0.833,2.277,1.604,3.42,2.311c2.26,1.432,4.627,2.574,6.982,3.539c2.364,0.964,4.715,1.765,7.053,2.416
			c2.386,0.61,4.764,1.069,7.117,1.405c2.367,0.321,4.703,0.528,7.035,0.58C158.602,445.708,160.942,445.596,163.259,445.33"/>
	</g>
	<g>
		<defs>
			<rect id="SVGID_26_" x="78.222" y="71.714" width="497.279" height="455.902"/>
		</defs>
		<clipPath id="SVGID_27_">
			<use xlink:href="#SVGID_26_"  overflow="visible"/>
		</clipPath>
		<path clip-path="url(#SVGID_27_)" fill="#C49A6C" d="M180.16,434.887c0.87-2.188,1.606-4.361,2.229-6.522
			c0.627-2.161,1.156-4.308,1.602-6.438c0.48-2.156,0.9-4.313,1.242-6.443c0.332-2.125,0.594-4.229,0.781-6.317
			c0.241-2.127,0.401-4.233,0.461-6.325c0.058-2.084-0.039-4.123-0.135-6.232c-0.068-1.046-0.175-2.087-0.328-3.128
			c-0.158-1.039-0.341-2.082-0.684-3.117c-0.92,0.921-1.696,1.854-2.432,2.807c-0.734,0.951-1.416,1.913-2.047,2.887
			c-1.256,1.946-2.346,3.937-3.283,5.97c-0.471,1.015-0.905,2.042-1.308,3.077c-0.409,1.041-0.771,2.083-1.073,3.116
			c-0.623,2.077-1.125,4.199-1.519,6.359c-0.194,1.08-0.358,2.168-0.49,3.266c-0.067,0.55-0.125,1.102-0.176,1.653
			c-0.037,0.543-0.065,1.087-0.086,1.634c-0.08,2.188-0.024,4.407,0.175,6.665c0.104,1.123,0.227,2.276,0.436,3.398
			c0.215,1.118,0.475,2.243,0.779,3.375c0.307,1.132,0.672,2.271,1.094,3.419c0.43,1.139,0.875,2.32,1.554,3.434
			c0.696-1.084,1.247-2.166,1.764-3.253C179.243,437.074,179.724,435.98,180.16,434.887"/>
	</g>
	<g>
		<defs>
			<rect id="SVGID_28_" x="78.222" y="71.714" width="497.279" height="455.902"/>
		</defs>
		<clipPath id="SVGID_29_">
			<use xlink:href="#SVGID_28_"  overflow="visible"/>
		</clipPath>
		<path clip-path="url(#SVGID_29_)" fill="#C49A6C" d="M125.154,410.454c2.266,0.738,4.536,1.35,6.817,1.813
			c1.133,0.237,2.293,0.421,3.471,0.558c1.17,0.143,2.342,0.244,3.517,0.308c2.349,0.13,4.71,0.088,7.088-0.145
			c1.188-0.117,2.384-0.291,3.589-0.524c1.203-0.233,2.412-0.52,3.651-0.957c-0.946-0.901-1.927-1.663-2.921-2.387
			c-0.994-0.723-2.004-1.396-3.029-2.03c-2.081-1.245-4.09-2.435-6.172-3.5c-2.081-1.071-4.211-2.043-6.385-2.937
			c-2.116-0.927-4.268-1.776-6.469-2.563c-2.195-0.784-4.442-1.499-6.711-2.147c-2.228-0.666-4.504-1.252-6.832-1.739
			c-2.328-0.489-4.713-0.865-7.158-1.104c-1.225-0.117-2.467-0.189-3.727-0.213c-1.244-0.033-2.506-0.025-3.82,0.135
			c0.834,1.287,1.818,2.36,2.776,3.396c0.964,1.032,1.944,2.002,2.937,2.909c0.994,0.906,2,1.762,3.013,2.567
			c1.017,0.804,2.103,1.528,3.162,2.225c2.134,1.388,4.306,2.601,6.483,3.664c0.545,0.268,1.09,0.523,1.639,0.771
			c0.563,0.237,1.126,0.468,1.689,0.688C122.892,409.677,124.021,410.083,125.154,410.454"/>
	</g>
	<g>
		<defs>
			<rect id="SVGID_30_" x="78.222" y="71.714" width="497.279" height="455.902"/>
		</defs>
		<clipPath id="SVGID_31_">
			<use xlink:href="#SVGID_30_"  overflow="visible"/>
		</clipPath>
		<path clip-path="url(#SVGID_31_)" fill="#C49A6C" d="M157.698,405.512c1.252-2.021,2.365-4.046,3.355-6.067
			c0.498-1.014,0.969-2.023,1.414-3.031c0.439-1.028,0.872-2.041,1.299-3.04c0.849-2.039,1.607-4.068,2.291-6.087
			c0.338-1.009,0.66-2.015,0.961-3.019c0.299-1.02,0.595-2.026,0.888-3.025c0.579-2.028,1.079-4.051,1.457-6.063
			c0.198-1.009,0.333-2.001,0.497-3.021c0.169-1.022,0.306-2.044,0.408-3.069c0.1-1.023,0.158-2.053,0.168-3.087
			c0.019-1.037-0.045-2.06-0.133-3.157c-1.072,0.743-2.012,1.529-2.91,2.336c-0.879,0.799-1.707,1.615-2.487,2.454
			c-1.558,1.681-2.958,3.431-4.218,5.25c-1.262,1.819-2.396,3.706-3.416,5.656c-0.979,1.933-1.808,3.91-2.558,5.957
			c-0.739,2.045-1.378,4.151-1.885,6.313c-0.446,2.131-0.769,4.318-0.951,6.568c-0.187,2.25-0.241,4.578,0.007,6.895
			c0.11,1.167,0.274,2.351,0.494,3.554c0.219,1.203,0.489,2.421,0.907,3.675c0.901-0.971,1.667-1.97,2.388-2.972
			C156.395,407.53,157.069,406.523,157.698,405.512"/>
	</g>
	<g>
		<defs>
			<rect id="SVGID_32_" x="78.222" y="71.714" width="497.279" height="455.902"/>
		</defs>
		<clipPath id="SVGID_33_">
			<use xlink:href="#SVGID_32_"  overflow="visible"/>
		</clipPath>
		<path clip-path="url(#SVGID_33_)" fill="#C49A6C" d="M104.718,369.999c1.023,0.642,2.057,1.247,3.098,1.819
			c2.084,1.144,4.197,2.158,6.352,3.027c1.078,0.434,2.164,0.834,3.262,1.192c1.119,0.353,2.256,0.662,3.396,0.937
			c2.285,0.549,4.612,0.93,6.988,1.127c1.189,0.096,2.395,0.139,3.618,0.123c1.223-0.017,2.461-0.082,3.753-0.293
			c-0.775-1.053-1.609-1.975-2.464-2.861c-0.854-0.885-1.731-1.728-2.632-2.533c-0.916-0.796-1.779-1.592-2.674-2.354
			c-0.893-0.764-1.803-1.5-2.731-2.211c-0.929-0.714-1.87-1.406-2.827-2.078c-0.949-0.654-1.906-1.313-2.873-1.979
			c-1.898-1.298-3.855-2.526-5.861-3.704c-4.07-2.329-8.105-4.511-12.476-6.322c-2.179-0.912-4.437-1.722-6.766-2.41
			c-1.176-0.34-2.335-0.65-3.535-0.912c-1.199-0.262-2.424-0.487-3.726-0.573c0.298,0.706,0.615,1.375,0.945,2.019
			c0.331,0.643,0.717,1.25,1.087,1.848c0.753,1.195,1.535,2.33,2.34,3.406c0.807,1.074,1.633,2.101,2.477,3.082
			c0.422,0.489,0.849,0.967,1.279,1.435c0.45,0.462,0.907,0.911,1.366,1.351c1.837,1.76,3.728,3.354,5.664,4.807
			C102.747,368.659,103.718,369.352,104.718,369.999"/>
	</g>
	<g>
		<defs>
			<rect id="SVGID_34_" x="78.222" y="71.714" width="497.279" height="455.902"/>
		</defs>
		<clipPath id="SVGID_35_">
			<use xlink:href="#SVGID_34_"  overflow="visible"/>
		</clipPath>
		<path clip-path="url(#SVGID_35_)" fill="#C49A6C" d="M140.543,372.833c1.575-1.759,3.014-3.547,4.331-5.353
			c0.66-0.902,1.289-1.807,1.902-2.715c0.637-0.918,1.248-1.839,1.838-2.761c1.179-1.845,2.26-3.69,3.265-5.538
			c0.499-0.926,0.979-1.851,1.438-2.773c0.484-0.932,0.967-1.871,1.416-2.809c0.902-1.876,1.715-3.757,2.418-5.652
			c0.348-0.965,0.692-1.922,1.033-2.873c0.336-0.967,0.639-1.942,0.909-2.924c0.267-0.984,0.496-1.979,0.676-2.987
			c0.093-0.505,0.151-1.007,0.233-1.525c0.083-0.521,0.146-1.05,0.179-1.591c-1.167,0.529-2.214,1.127-3.222,1.751
			c-1.008,0.623-1.98,1.278-2.871,1.954c-1.794,1.355-3.458,2.814-4.993,4.365c-3.073,3.098-5.754,6.576-7.843,10.291
			c-1.067,1.869-2.042,3.813-2.911,5.841c-0.45,1.021-0.815,2.04-1.153,3.083c-0.341,1.043-0.654,2.107-0.934,3.195
			c-0.282,1.084-0.529,2.192-0.741,3.326c-0.212,1.133-0.399,2.293-0.474,3.449c-0.092,1.163-0.131,2.354-0.12,3.573
			c0.011,1.22,0.067,2.463,0.265,3.771c1.055-0.795,1.975-1.642,2.855-2.496C138.92,374.581,139.754,373.713,140.543,372.833"/>
	</g>
	<g>
		<defs>
			<rect id="SVGID_36_" x="78.222" y="71.714" width="497.279" height="455.902"/>
		</defs>
		<clipPath id="SVGID_37_">
			<use xlink:href="#SVGID_36_"  overflow="visible"/>
		</clipPath>
		<path clip-path="url(#SVGID_37_)" fill="#C49A6C" d="M92.883,325.664c0.799,0.891,1.623,1.744,2.459,2.566
			c0.833,0.824,1.754,1.606,2.649,2.362c1.812,1.507,3.676,2.894,5.606,4.146c1.941,1.25,3.884,2.377,6.031,3.33
			c2.117,0.963,4.308,1.768,6.58,2.399c1.139,0.313,2.302,0.578,3.492,0.788c1.192,0.211,2.407,0.374,3.701,0.405
			c-0.572-1.177-1.223-2.234-1.898-3.263c-0.676-1.027-1.383-2.017-2.114-2.973c-1.409-1.92-2.849-3.749-4.404-5.488
			c-1.53-1.748-3.207-3.41-4.774-5.041c-1.604-1.625-3.27-3.193-4.991-4.719c-3.513-3.037-6.955-5.921-10.833-8.496
			c-1.925-1.293-3.938-2.498-6.05-3.598c-1.068-0.548-2.112-1.063-3.221-1.537c-1.101-0.477-2.233-0.918-3.465-1.238
			c0.309,1.49,0.713,2.846,1.238,4.151c0.501,1.308,1.039,2.56,1.611,3.761c0.574,1.199,1.176,2.354,1.805,3.469
			c0.628,1.115,1.268,2.189,2.01,3.218C89.755,321.971,91.283,323.885,92.883,325.664"/>
	</g>
	<g>
		<defs>
			<rect id="SVGID_38_" x="78.222" y="71.714" width="497.279" height="455.902"/>
		</defs>
		<clipPath id="SVGID_39_">
			<use xlink:href="#SVGID_38_"  overflow="visible"/>
		</clipPath>
		<path clip-path="url(#SVGID_39_)" fill="#C49A6C" d="M129.493,337.648c1.833-1.436,3.535-2.924,5.119-4.449
			c1.56-1.521,3.15-3.1,4.593-4.688c1.453-1.593,2.817-3.207,4.103-4.836c0.651-0.814,1.242-1.631,1.885-2.461
			c0.638-0.828,1.259-1.662,1.851-2.501c1.185-1.677,2.278-3.378,3.265-5.114c0.479-0.863,1.004-1.748,1.485-2.643
			c0.479-0.896,0.933-1.803,1.351-2.723c0.418-0.924,0.797-1.863,1.135-2.827c0.314-0.964,0.679-1.948,0.926-3.011
			c-1.212,0.311-2.319,0.707-3.395,1.14c-1.07,0.43-2.129,0.899-3.1,1.401c-1.956,1.01-3.796,2.142-5.536,3.389
			c-3.462,2.484-6.675,5.421-9.317,8.686c-1.349,1.641-2.623,3.369-3.814,5.202c-1.23,1.837-2.197,3.75-3.13,5.782
			c-0.914,2.023-1.745,4.173-2.384,6.434c-0.287,1.125-0.532,2.286-0.731,3.485c-0.2,1.198-0.36,2.429-0.396,3.747
			c1.164-0.586,2.205-1.245,3.209-1.922C127.614,339.063,128.574,338.366,129.493,337.648"/>
	</g>
	<g>
		<defs>
			<rect id="SVGID_40_" x="78.222" y="71.714" width="497.279" height="455.902"/>
		</defs>
		<clipPath id="SVGID_41_">
			<use xlink:href="#SVGID_40_"  overflow="visible"/>
		</clipPath>
		<path clip-path="url(#SVGID_41_)" fill="#C49A6C" d="M85.696,264.971c0.222,1.365,0.489,2.688,0.8,3.965
			c0.311,1.276,0.659,2.516,1.041,3.72c0.192,0.603,0.384,1.194,0.601,1.778c0.231,0.586,0.468,1.164,0.713,1.731
			c0.989,2.279,2.092,4.429,3.286,6.459c0.599,1.017,1.22,2.001,1.864,2.959c0.68,0.958,1.384,1.89,2.107,2.792
			c1.449,1.803,2.975,3.499,4.586,5.076c1.615,1.579,3.287,3.037,5.171,4.361c1.853,1.328,3.805,2.517,5.873,3.553
			c1.036,0.516,2.104,0.988,3.21,1.412c1.105,0.424,2.242,0.807,3.479,1.076c-0.34-1.264-0.777-2.422-1.244-3.556
			c-0.465-1.134-0.965-2.234-1.498-3.308c-1.026-2.144-2.057-4.202-3.234-6.192c-0.58-0.996-1.182-1.978-1.801-2.947
			c-0.613-0.944-1.233-1.9-1.859-2.864c-1.232-1.886-2.534-3.724-3.896-5.531c-2.787-3.61-5.551-7.056-8.723-10.269
			c-1.579-1.609-3.256-3.147-5.046-4.598c-0.902-0.725-1.828-1.419-2.771-2.078c-0.95-0.658-1.935-1.293-3.039-1.824
			c0.003,0.757,0.034,1.483,0.089,2.192C85.485,263.594,85.586,264.287,85.696,264.971"/>
	</g>
	<g>
		<defs>
			<rect id="SVGID_42_" x="78.222" y="71.714" width="497.279" height="455.902"/>
		</defs>
		<clipPath id="SVGID_43_">
			<use xlink:href="#SVGID_42_"  overflow="visible"/>
		</clipPath>
		<path clip-path="url(#SVGID_43_)" fill="#C49A6C" d="M124.981,301.021c2.013-1.08,3.902-2.232,5.688-3.448
			c1.758-1.215,3.535-2.48,5.198-3.784c1.667-1.306,3.249-2.651,4.755-4.026c0.754-0.689,1.484-1.387,2.199-2.092
			c0.752-0.703,1.484-1.415,2.195-2.136c1.423-1.444,2.767-2.927,4.005-4.466c0.614-0.791,1.224-1.573,1.827-2.35
			c0.608-0.799,1.188-1.615,1.738-2.451c0.549-0.838,1.063-1.701,1.541-2.598c0.238-0.447,0.469-0.9,0.684-1.37
			c0.24-0.465,0.468-0.944,0.671-1.448c-1.199,0.092-2.313,0.289-3.406,0.524c-1.101,0.235-2.146,0.517-3.155,0.84
			c-2.022,0.65-3.961,1.441-5.826,2.362c-1.867,0.918-3.67,1.959-5.416,3.109c-0.437,0.289-0.869,0.584-1.299,0.886
			c-0.418,0.303-0.824,0.612-1.23,0.93c-0.811,0.634-1.614,1.293-2.403,1.978c-1.577,1.373-3.101,2.85-4.562,4.438
			c-0.363,0.397-0.732,0.802-1.079,1.214c-0.337,0.413-0.669,0.833-0.997,1.26c-0.656,0.856-1.294,1.74-1.913,2.655
			c-1.226,1.828-2.419,3.792-3.409,5.899c-0.474,1.054-0.913,2.152-1.316,3.294c-0.403,1.141-0.774,2.323-1.043,3.612
			c1.222-0.362,2.338-0.82,3.42-1.305C122.929,302.068,123.974,301.557,124.981,301.021"/>
	</g>
	<g>
		<defs>
			<rect id="SVGID_44_" x="78.222" y="71.714" width="497.279" height="455.902"/>
		</defs>
		<clipPath id="SVGID_45_">
			<use xlink:href="#SVGID_44_"  overflow="visible"/>
		</clipPath>
		<path clip-path="url(#SVGID_45_)" fill="#C49A6C" d="M97.109,229.858c0.114,1.231,0.306,2.446,0.569,3.645
			c0.5,2.389,1.127,4.674,1.868,6.863c0.37,1.094,0.768,2.164,1.193,3.209c0.452,1.055,0.945,2.088,1.455,3.096
			c1.025,2.016,2.145,3.941,3.369,5.768c1.225,1.827,2.543,3.551,4.074,5.184c1.502,1.629,3.129,3.139,4.892,4.521
			c0.884,0.69,1.808,1.342,2.774,1.954c0.969,0.613,1.975,1.19,3.096,1.673c-0.092-1.301-0.292-2.517-0.525-3.714
			c-0.232-1.196-0.504-2.366-0.811-3.514c-0.588-2.289-1.17-4.49-1.916-6.649c-0.361-1.08-0.746-2.146-1.15-3.205
			c-0.206-0.523-0.413-1.051-0.621-1.58c-0.197-0.515-0.395-1.031-0.594-1.552c-0.809-2.06-1.689-4.086-2.632-6.088
			c-1.954-4.014-3.886-7.845-6.253-11.513c-1.176-1.834-2.455-3.614-3.855-5.325c-0.712-0.858-1.412-1.673-2.182-2.476
			c-0.764-0.801-1.565-1.578-2.497-2.278c-0.293,1.463-0.455,2.837-0.493,4.208c-0.057,1.363-0.064,2.691-0.019,3.984
			C96.897,227.36,96.984,228.625,97.109,229.858"/>
	</g>
	<g>
		<defs>
			<rect id="SVGID_46_" x="78.222" y="71.714" width="497.279" height="455.902"/>
		</defs>
		<clipPath id="SVGID_47_">
			<use xlink:href="#SVGID_46_"  overflow="visible"/>
		</clipPath>
		<path clip-path="url(#SVGID_47_)" fill="#C49A6C" d="M127.116,264.141c2.097-0.705,4.092-1.509,5.994-2.394
			c1.881-0.886,3.773-1.825,5.582-2.822c1.807-0.997,3.537-2.051,5.201-3.149c0.834-0.551,1.642-1.114,2.447-1.688
			c0.833-0.566,1.648-1.145,2.447-1.738c1.597-1.188,3.119-2.432,4.559-3.748c0.359-0.336,0.717-0.67,1.072-1
			c0.372-0.334,0.736-0.674,1.089-1.021c0.709-0.693,1.394-1.41,2.056-2.152c0.662-0.744,1.295-1.521,1.896-2.337
			c0.582-0.821,1.219-1.649,1.777-2.592c-1.139-0.103-2.217-0.088-3.28-0.032c-1.058,0.059-2.123,0.155-3.119,0.313
			c-2.01,0.312-3.966,0.776-5.879,1.379c-3.813,1.202-7.569,2.897-10.987,5.073c-1.729,1.086-3.432,2.281-5.098,3.596
			c-0.416,0.328-0.832,0.664-1.241,1.008c-0.394,0.348-0.782,0.704-1.169,1.069c-0.773,0.727-1.536,1.487-2.286,2.28
			c-1.485,1.588-2.981,3.309-4.288,5.209c-0.639,0.953-1.254,1.957-1.844,3.008c-0.59,1.052-1.158,2.147-1.646,3.367
			c1.223-0.141,2.363-0.394,3.475-0.676C124.985,264.811,126.065,264.494,127.116,264.141"/>
	</g>
	<g>
		<defs>
			<rect id="SVGID_48_" x="78.222" y="71.714" width="497.279" height="455.902"/>
		</defs>
		<clipPath id="SVGID_49_">
			<use xlink:href="#SVGID_48_"  overflow="visible"/>
		</clipPath>
		<path clip-path="url(#SVGID_49_)" fill="#C49A6C" d="M115.906,207.079c0.571,2.121,1.248,4.174,2.045,6.149
			c0.397,0.989,0.825,1.958,1.286,2.907c0.23,0.474,0.468,0.943,0.714,1.408c0.259,0.47,0.526,0.933,0.802,1.392
			c1.098,1.837,2.336,3.581,3.727,5.226c0.697,0.82,1.44,1.612,2.233,2.373c0.792,0.762,1.627,1.494,2.589,2.154
			c0.156-1.292,0.194-2.52,0.2-3.73c0.007-1.213-0.03-2.403-0.101-3.578c-0.077-2.323-0.237-4.583-0.516-6.811
			c-0.267-2.226-0.652-4.431-0.982-6.554c-0.361-2.135-0.797-4.247-1.293-6.338c-0.25-1.045-0.514-2.085-0.797-3.12
			c-0.264-1.025-0.526-2.035-0.813-3.041c-0.573-2.01-1.224-3.994-1.966-5.941c-0.734-1.947-1.596-3.865-2.543-5.713
			c-0.469-0.916-0.977-1.816-1.532-2.699c-0.554-0.885-1.147-1.752-1.878-2.563c-0.548,1.364-0.995,2.642-1.311,3.942
			c-0.32,1.301-0.586,2.574-0.799,3.824c-0.406,2.504-0.697,4.896-0.709,7.269c0.002,2.382,0.145,4.688,0.412,6.923
			C114.944,202.793,115.312,204.942,115.906,207.079"/>
	</g>
	<g>
		<defs>
			<rect id="SVGID_50_" x="78.222" y="71.714" width="497.279" height="455.902"/>
		</defs>
		<clipPath id="SVGID_51_">
			<use xlink:href="#SVGID_50_"  overflow="visible"/>
		</clipPath>
		<path clip-path="url(#SVGID_51_)" fill="#C49A6C" d="M132.683,228.6c1.094-0.096,2.164-0.229,3.213-0.403
			c2.093-0.351,4.107-0.816,6.05-1.382c0.485-0.146,0.966-0.291,1.444-0.438c0.49-0.152,0.978-0.302,1.461-0.453
			c0.965-0.312,1.915-0.643,2.851-0.992c1.869-0.701,3.677-1.472,5.431-2.303c1.721-0.846,3.511-1.701,5.209-2.639
			c1.703-0.939,3.348-1.95,4.928-3.051c1.615-1.082,3.21-2.245,4.703-3.545c0.75-0.649,1.479-1.338,2.188-2.067
			c0.703-0.733,1.473-1.462,2.153-2.334c-1.036-0.261-2.039-0.394-3.037-0.485c-0.996-0.093-1.985-0.136-2.968-0.133
			c-1.944,0.018-3.831,0.207-5.725,0.527c-1.89,0.316-3.771,0.763-5.646,1.326c-0.934,0.281-1.883,0.586-2.813,0.927
			c-0.91,0.348-1.818,0.724-2.726,1.126c-1.813,0.809-3.623,1.723-5.422,2.758c-1.83,1.023-3.519,2.221-5.218,3.54
			c-1.693,1.321-3.381,2.783-5.002,4.421c-0.775,0.833-1.539,1.717-2.287,2.654c-0.748,0.936-1.483,1.918-2.17,3.033
			C130.472,228.752,131.587,228.695,132.683,228.6"/>
	</g>
	<g>
		<defs>
			<rect id="SVGID_52_" x="78.222" y="71.714" width="497.279" height="455.902"/>
		</defs>
		<clipPath id="SVGID_53_">
			<use xlink:href="#SVGID_52_"  overflow="visible"/>
		</clipPath>
		<path clip-path="url(#SVGID_53_)" fill="#C49A6C" d="M138.632,183.083c0.665,1.937,1.479,3.807,2.453,5.604
			c0.49,0.899,1.029,1.778,1.619,2.633c0.591,0.856,1.227,1.693,1.992,2.476c0.395-1.236,0.666-2.428,0.903-3.608
			c0.245-1.175,0.418-2.354,0.61-3.487c0.396-2.26,0.672-4.481,0.85-6.677c0.092-1.097,0.16-2.188,0.209-3.274
			c0.074-1.068,0.139-2.125,0.178-3.181c0.084-2.108,0.092-4.2,0.043-6.276c-0.066-2.086-0.113-4.095-0.242-6.09
			c-0.133-1.996-0.342-3.973-0.643-5.924c-0.287-1.943-0.725-3.892-1.201-5.736c-0.25-0.93-0.543-1.848-0.881-2.754
			c-0.337-0.906-0.714-1.803-1.229-2.662c-0.789,1.205-1.436,2.371-2.023,3.529c-0.557,1.186-1.057,2.354-1.503,3.51
			c-0.887,2.307-1.596,4.564-2.14,6.772c-0.491,2.251-0.805,4.478-0.999,6.647c-0.097,1.086-0.159,2.16-0.191,3.223
			c-0.036,1.059-0.034,2.111,0.03,3.177C136.704,175.218,137.366,179.259,138.632,183.083"/>
	</g>
	<g>
		<defs>
			<rect id="SVGID_54_" x="78.222" y="71.714" width="497.279" height="455.902"/>
		</defs>
		<clipPath id="SVGID_55_">
			<use xlink:href="#SVGID_54_"  overflow="visible"/>
		</clipPath>
		<path clip-path="url(#SVGID_55_)" fill="#C49A6C" d="M150.918,194.266c2.012-0.045,3.972-0.219,5.881-0.504
			c3.892-0.521,7.64-1.412,11.198-2.598c0.904-0.309,1.803-0.613,2.691-0.917c0.897-0.315,1.787-0.651,2.666-1.007
			c1.756-0.714,3.481-1.506,5.133-2.421c1.726-0.866,3.407-1.843,5.047-2.955c0.82-0.561,1.627-1.158,2.424-1.804
			c0.83-0.621,1.658-1.274,2.467-2.059c-0.908-0.367-1.811-0.605-2.714-0.805c-0.904-0.2-1.812-0.35-2.722-0.457
			c-1.836-0.225-3.595-0.234-5.416-0.146c-1.811,0.092-3.638,0.308-5.484,0.629c-1.848,0.32-3.725,0.744-5.534,1.318
			c-1.838,0.561-3.692,1.221-5.562,1.995c-0.933,0.388-1.877,0.8-2.811,1.25c-0.91,0.466-1.822,0.963-2.736,1.493
			c-1.83,1.055-3.666,2.256-5.504,3.615c-0.912,0.684-1.766,1.453-2.647,2.254c-0.874,0.806-1.746,1.658-2.599,2.646
			c1.078,0.235,2.125,0.338,3.16,0.404C148.892,194.264,149.911,194.287,150.918,194.266"/>
	</g>
	<g>
		<defs>
			<rect id="SVGID_56_" x="78.222" y="71.714" width="497.279" height="455.902"/>
		</defs>
		<clipPath id="SVGID_57_">
			<use xlink:href="#SVGID_56_"  overflow="visible"/>
		</clipPath>
		<path clip-path="url(#SVGID_57_)" fill="#C49A6C" d="M163.53,156.731c0.275,0.918,0.6,1.823,0.976,2.715
			c0.378,0.893,0.8,1.772,1.353,2.617c0.611-1.142,1.1-2.252,1.555-3.355c0.463-1.098,0.85-2.214,1.275-3.258
			c0.82-2.113,1.521-4.2,2.127-6.268c0.309-1.029,0.578-2.07,0.861-3.078c0.288-1.002,0.561-1.994,0.814-2.984
			c0.509-1.98,0.945-3.945,1.328-5.895c0.357-1.971,0.746-3.836,1.029-5.719c0.287-1.876,0.498-3.736,0.621-5.579
			c0.129-1.838,0.131-3.68,0.069-5.431c-0.04-0.885-0.121-1.76-0.247-2.631c-0.125-0.869-0.289-1.733-0.589-2.578
			c-0.983,1.017-1.822,2.017-2.61,3.012c-0.765,1.023-1.465,2.049-2.117,3.063c-1.297,2.031-2.418,4.039-3.375,6.025
			c-0.926,2.025-1.676,4.057-2.311,6.051c-0.622,2.006-1.146,3.955-1.475,5.957c-0.637,4.012-0.823,7.924-0.435,11.698
			C162.597,153.003,162.987,154.895,163.53,156.731"/>
	</g>
	<g>
		<defs>
			<rect id="SVGID_58_" x="78.222" y="71.714" width="497.279" height="455.902"/>
		</defs>
		<clipPath id="SVGID_59_">
			<use xlink:href="#SVGID_58_"  overflow="visible"/>
		</clipPath>
		<path clip-path="url(#SVGID_59_)" fill="#C49A6C" d="M171.529,163.254c1.874,0.192,3.714,0.242,5.551,0.189
			c3.728-0.054,7.362-0.523,10.899-1.307c1.783-0.387,3.595-0.801,5.348-1.342c1.766-0.527,3.492-1.166,5.229-1.887
			c1.774-0.681,3.532-1.482,5.279-2.422c0.874-0.47,1.741-0.988,2.618-1.543c0.901-0.527,1.804-1.094,2.717-1.785
			c-0.767-0.421-1.554-0.719-2.353-0.982c-0.799-0.262-1.608-0.479-2.43-0.655c-1.66-0.366-3.295-0.529-4.998-0.599
			c-1.695-0.068-3.433-0.026-5.211,0.109c-1.77,0.143-3.613,0.35-5.402,0.727c-1.811,0.361-3.657,0.809-5.543,1.357
			c-0.942,0.275-1.894,0.575-2.857,0.899c-0.954,0.333-1.886,0.722-2.843,1.126c-1.906,0.811-3.849,1.754-5.824,2.845
			c-1.004,0.534-1.94,1.179-2.917,1.845c-0.97,0.67-1.947,1.385-2.934,2.233c0.951,0.354,1.902,0.581,2.849,0.767
			C169.651,163.016,170.593,163.156,171.529,163.254"/>
	</g>
	<g>
		<defs>
			<rect id="SVGID_60_" x="78.222" y="71.714" width="497.279" height="455.902"/>
		</defs>
		<clipPath id="SVGID_61_">
			<use xlink:href="#SVGID_60_"  overflow="visible"/>
		</clipPath>
		<path clip-path="url(#SVGID_61_)" fill="#C49A6C" d="M191.222,131.649c0.165,0.867,0.375,1.729,0.715,2.574
			c0.803-1.011,1.486-2.003,2.137-2.99c0.655-0.98,1.245-1.983,1.861-2.912c1.203-1.883,2.294-3.746,3.29-5.594
			c0.503-0.92,0.976-1.849,1.446-2.752c0.482-0.887,0.947-1.77,1.392-2.649c0.892-1.761,1.715-3.507,2.483-5.239
			c0.748-1.751,1.498-3.41,2.166-5.066s1.261-3.304,1.769-4.929c0.519-1.612,0.913-3.248,1.231-4.797
			c0.156-0.778,0.271-1.552,0.343-2.323c0.071-0.771,0.108-1.539,0.013-2.302c-1.141,0.791-2.154,1.564-3.096,2.375
			c-0.932,0.83-1.814,1.654-2.637,2.49c-1.639,1.677-3.109,3.358-4.426,5.04c-1.277,1.74-2.412,3.484-3.421,5.224
			c-1,1.751-1.905,3.458-2.635,5.242c-1.444,3.573-2.446,7.128-2.875,10.646c-0.198,1.783-0.226,3.578-0.101,5.338
			C190.943,129.905,191.057,130.78,191.222,131.649"/>
	</g>
	<g>
		<defs>
			<rect id="SVGID_62_" x="78.222" y="71.714" width="497.279" height="455.902"/>
		</defs>
		<clipPath id="SVGID_63_">
			<use xlink:href="#SVGID_62_"  overflow="visible"/>
		</clipPath>
		<path clip-path="url(#SVGID_63_)" fill="#C49A6C" d="M196.953,135.864c1.7,0.352,3.396,0.556,5.114,0.664
			c3.474,0.267,6.938,0.101,10.375-0.399c1.723-0.252,3.502-0.507,5.246-0.898c1.752-0.381,3.502-0.86,5.26-1.446
			c1.802-0.525,3.613-1.17,5.443-1.948c0.915-0.396,1.829-0.841,2.756-1.327c0.938-0.471,1.906-0.946,2.899-1.555
			c-0.623-0.418-1.292-0.726-1.979-1c-0.686-0.275-1.394-0.512-2.121-0.713c-1.459-0.405-2.938-0.629-4.508-0.787
			c-1.565-0.159-3.197-0.232-4.882-0.223c-1.687,0.008-3.438,0.084-5.183,0.307c-1.762,0.207-3.573,0.483-5.442,0.845
			c-0.935,0.18-1.884,0.382-2.847,0.606c-0.951,0.238-1.9,0.522-2.871,0.82c-1.938,0.598-3.938,1.309-6.001,2.146
			c-1.046,0.404-2.048,0.922-3.092,1.453c-1.039,0.539-2.095,1.115-3.185,1.814c0.81,0.423,1.646,0.723,2.484,0.984
			S196.104,135.687,196.953,135.864"/>
	</g>
	<g>
		<defs>
			<rect id="SVGID_64_" x="78.222" y="71.714" width="497.279" height="455.902"/>
		</defs>
		<clipPath id="SVGID_65_">
			<use xlink:href="#SVGID_64_"  overflow="visible"/>
		</clipPath>
		<path clip-path="url(#SVGID_65_)" fill="#C49A6C" d="M224.697,108.295c0.823-0.828,1.595-1.674,2.358-2.472
			c1.537-1.575,2.963-3.137,4.297-4.682c1.252-1.474,2.527-2.976,3.828-4.51c1.227-1.448,2.383-2.881,3.487-4.298
			c2.175-2.88,4.24-5.461,5.907-8.092c0.84-1.307,1.584-2.594,2.216-3.861c0.31-0.643,0.595-1.25,0.838-1.865
			c0.242-0.615,0.448-1.227,0.53-1.846c-1.258,0.525-2.38,1.073-3.436,1.683c-1.063,0.59-2.064,1.213-3.025,1.827
			c-1.908,1.251-3.689,2.466-5.271,3.812c-1.584,1.35-3.037,2.718-4.369,4.105c-1.326,1.397-2.56,2.761-3.613,4.267
			c-2.123,2.973-3.844,5.972-5.002,9.04c-0.563,1.565-0.983,3.134-1.248,4.705c-0.131,0.786-0.215,1.571-0.247,2.354
			c-0.034,0.785-0.024,1.569,0.108,2.349C223.024,109.965,223.877,109.127,224.697,108.295"/>
	</g>
	<g>
		<defs>
			<rect id="SVGID_66_" x="78.222" y="71.714" width="497.279" height="455.902"/>
		</defs>
		<clipPath id="SVGID_67_">
			<use xlink:href="#SVGID_66_"  overflow="visible"/>
		</clipPath>
		<path clip-path="url(#SVGID_67_)" fill="#C49A6C" d="M226.382,112.612c1.508,0.418,3.051,0.709,4.619,0.884
			c3.175,0.415,6.465,0.463,9.789,0.159c1.65-0.183,3.371-0.34,5.09-0.631c1.723-0.285,3.466-0.664,5.238-1.148
			c1.773-0.48,3.64-0.967,5.523-1.637c0.945-0.334,1.913-0.69,2.887-1.113c0.971-0.436,1.98-0.852,3.055-1.362
			c-0.491-0.358-1.051-0.624-1.637-0.864c-0.584-0.242-1.199-0.459-1.826-0.615c-1.26-0.324-2.613-0.567-4.051-0.741
			c-2.861-0.326-6.086-0.483-9.445-0.224c-1.693,0.109-3.452,0.27-5.282,0.489c-1.845,0.198-3.707,0.548-5.649,0.968
			c-1.945,0.414-3.971,0.918-6.082,1.524c-1.052,0.313-2.101,0.706-3.189,1.11c-1.086,0.41-2.195,0.853-3.364,1.4
			c0.665,0.436,1.379,0.762,2.104,1.051C224.889,112.153,225.629,112.403,226.382,112.612"/>
	</g>
	<g>
		<defs>
			<rect id="SVGID_68_" x="78.222" y="71.714" width="497.279" height="455.902"/>
		</defs>
		<clipPath id="SVGID_69_">
			<use xlink:href="#SVGID_68_"  overflow="visible"/>
		</clipPath>
		<path clip-path="url(#SVGID_69_)" fill="#C49A6C" d="M258.994,92.448c0.873-0.041,1.687-0.144,2.487-0.244
			c1.601-0.215,3.11-0.502,4.549-0.881c2.891-0.74,5.554-1.777,8.119-3.067c2.563-1.296,5.013-2.852,7.338-4.814
			c1.168-0.973,2.293-2.072,3.385-3.297c0.541-0.624,1.082-1.261,1.596-1.974c0.524-0.692,1.021-1.461,1.491-2.32
			c-1.851-0.633-3.565-0.851-5.251-0.963c-1.675-0.082-3.305-0.009-4.88,0.216c-3.154,0.446-6.13,1.427-8.907,2.837
			c-2.773,1.42-5.363,3.26-7.594,5.623c-1.117,1.178-2.131,2.502-3.016,3.957c-0.865,1.483-1.631,3.067-2.055,4.967
			C257.237,92.535,258.144,92.517,258.994,92.448"/>
	</g>
	<g>
		<defs>
			<rect id="SVGID_70_" x="78.222" y="71.714" width="497.279" height="455.902"/>
		</defs>
		<clipPath id="SVGID_71_">
			<use xlink:href="#SVGID_70_"  overflow="visible"/>
		</clipPath>
		<path clip-path="url(#SVGID_71_)" fill="#C49A6C" d="M385.201,521.154c-1.538-0.961-3.146-1.807-4.813-2.54
			c-3.307-1.413-6.884-2.674-10.547-3.484c-1.841-0.425-3.688-0.688-5.619-1.006c-1.922-0.292-3.885-0.482-5.9-0.564
			c-1.006-0.041-2.03-0.06-3.07-0.047c-1.05-0.023-2.117-0.019-3.204,0.016c-1.09,0.032-2.204,0.1-3.349,0.198
			c-1.146,0.1-2.313,0.23-3.574,0.426c0.383,0.28,0.865,0.523,1.383,0.768c0.519,0.242,1.075,0.479,1.671,0.718
			c1.195,0.476,2.519,0.95,3.96,1.447c1.441,0.496,2.993,1.005,4.646,1.519c1.644,0.482,3.388,0.968,5.223,1.46
			c1.839,0.489,3.78,1.021,5.825,1.526c2.023,0.442,4.156,0.869,6.412,1.296c2.252,0.42,4.646,0.862,7.133,1.083
			c1.248,0.127,2.539,0.239,3.875,0.333c1.333,0.086,2.717,0.188,4.188,0.171c-0.603-0.652-1.293-1.219-2.01-1.771
			S385.969,521.634,385.201,521.154"/>
	</g>
	<g>
		<defs>
			<rect id="SVGID_72_" x="78.222" y="71.714" width="497.279" height="455.902"/>
		</defs>
		<clipPath id="SVGID_73_">
			<use xlink:href="#SVGID_72_"  overflow="visible"/>
		</clipPath>
		<path clip-path="url(#SVGID_73_)" fill="#C49A6C" d="M351.632,511.72c0.984-0.437,1.937-0.892,2.851-1.361
			c0.905-0.507,1.774-1.034,2.612-1.57c1.68-1.072,3.233-2.205,4.674-3.398c1.448-1.163,2.747-2.507,3.957-3.849
			c1.204-1.35,2.303-2.762,3.292-4.209c0.494-0.722,0.966-1.441,1.396-2.201c0.429-0.767,0.826-1.546,1.193-2.335
			c0.736-1.578,1.339-3.199,1.796-4.859c0.228-0.829,0.411-1.67,0.551-2.521c0.138-0.851,0.241-1.697,0.233-2.558
			c-0.936,0.832-1.761,1.708-2.574,2.551c-0.812,0.847-1.596,1.688-2.355,2.521c-0.373,0.411-0.748,0.824-1.125,1.238
			c-0.371,0.391-0.743,0.781-1.117,1.173c-0.737,0.772-1.444,1.58-2.144,2.354c-1.324,1.476-2.674,2.979-4.052,4.518
			c-1.249,1.342-2.523,2.712-3.824,4.111c-1.164,1.243-2.354,2.511-3.572,3.813c-1.068,1.084-2.164,2.196-3.296,3.347
			c-1.039,1.061-2.002,2.056-2.868,3.001c-0.432,0.471-0.832,0.929-1.198,1.372c-0.366,0.442-0.703,0.875-0.938,1.298
			c1.228-0.37,2.342-0.761,3.417-1.165C349.614,512.582,350.646,512.16,351.632,511.72"/>
	</g>
	<g>
		<defs>
			<rect id="SVGID_74_" x="78.222" y="71.714" width="497.279" height="455.902"/>
		</defs>
		<clipPath id="SVGID_75_">
			<use xlink:href="#SVGID_74_"  overflow="visible"/>
		</clipPath>
		<path clip-path="url(#SVGID_75_)" fill="#C49A6C" d="M425.523,510.31c-1.858-1.021-3.762-1.904-5.692-2.662
			c-1.92-0.737-3.908-1.448-5.908-2.05c-1.999-0.597-4.013-1.09-6.037-1.487c-1.015-0.2-2.03-0.38-3.051-0.532
			c-1.031-0.18-2.068-0.34-3.108-0.471c-2.079-0.263-4.184-0.43-6.313-0.474c-2.115-0.012-4.33-0.061-6.568,0.099
			c-1.124,0.071-2.264,0.186-3.427,0.342c-1.16,0.156-2.334,0.357-3.604,0.591c0.554,0.589,1.188,1.093,1.856,1.577
			c0.669,0.484,1.362,0.914,2.095,1.336c1.465,0.833,3.045,1.598,4.731,2.301c1.685,0.708,3.473,1.366,5.359,1.987
			c1.89,0.632,3.825,1.097,5.878,1.597c2.05,0.487,4.181,0.917,6.412,1.296c2.238,0.398,4.521,0.614,6.927,0.799
			c1.2,0.092,2.429,0.158,3.686,0.203c1.253,0.034,2.562,0.099,3.848,0.028c1.296-0.053,2.627-0.141,3.992-0.266
			c1.363-0.132,2.771-0.275,4.241-0.564c-0.811-0.75-1.687-1.379-2.583-1.979C427.363,511.378,426.451,510.824,425.523,510.31"/>
	</g>
	<g>
		<defs>
			<rect id="SVGID_76_" x="78.222" y="71.714" width="497.279" height="455.902"/>
		</defs>
		<clipPath id="SVGID_77_">
			<use xlink:href="#SVGID_76_"  overflow="visible"/>
		</clipPath>
		<path clip-path="url(#SVGID_77_)" fill="#C49A6C" d="M387.634,499.652c1.705-1.432,3.274-2.849,4.631-4.463
			c1.372-1.582,2.604-3.215,3.711-4.877c0.554-0.832,1.075-1.673,1.564-2.526c0.478-0.881,0.923-1.772,1.341-2.669
			c1.661-3.599,2.905-7.261,3.522-11.181c0.313-1.955,0.479-3.94,0.486-5.96c0.001-1.008-0.043-2.023-0.137-3.05
			c-0.097-1.026-0.229-2.052-0.481-3.097c-0.78,0.915-1.438,1.873-2.082,2.814c-0.643,0.946-1.25,1.896-1.833,2.847
			c-1.175,1.875-2.288,3.71-3.322,5.561c-0.519,0.925-1.026,1.839-1.513,2.771c-0.487,0.932-0.963,1.853-1.446,2.729
			c-0.957,1.779-1.866,3.543-2.734,5.309c-1.719,3.557-3.354,6.885-4.709,10.162c-0.682,1.638-1.28,3.264-1.782,4.873
			c-0.252,0.802-0.463,1.615-0.651,2.399c-0.187,0.785-0.343,1.569-0.384,2.369c1.148-0.577,2.146-1.253,3.102-1.934
			C385.869,501.052,386.777,500.359,387.634,499.652"/>
	</g>
	<g>
		<defs>
			<rect id="SVGID_78_" x="78.222" y="71.714" width="497.279" height="455.902"/>
		</defs>
		<clipPath id="SVGID_79_">
			<use xlink:href="#SVGID_78_"  overflow="visible"/>
		</clipPath>
		<path clip-path="url(#SVGID_79_)" fill="#C49A6C" d="M463.342,491.163c-2.147-0.895-4.313-1.637-6.479-2.246
			c-2.161-0.602-4.375-1.161-6.576-1.603c-2.201-0.44-4.399-0.777-6.59-1.022c-1.099-0.124-2.19-0.222-3.29-0.307
			c-1.11-0.104-2.222-0.185-3.331-0.238c-2.218-0.107-4.434-0.109-6.657,0.005c-0.561,0.034-1.117,0.069-1.672,0.104
			c-0.565,0.028-1.133,0.065-1.701,0.111c-1.138,0.091-2.277,0.217-3.424,0.381c-1.147,0.164-2.302,0.373-3.468,0.629
			c-0.584,0.128-1.165,0.274-1.764,0.424c-0.604,0.142-1.212,0.302-1.834,0.492c0.757,0.722,1.572,1.324,2.412,1.893
			c0.842,0.571,1.708,1.099,2.589,1.564c1.77,0.943,3.63,1.766,5.579,2.482c3.889,1.431,8.136,2.518,12.567,3.135
			c2.225,0.313,4.521,0.548,6.895,0.688c0.602,0.028,1.2,0.06,1.796,0.087c0.603,0.002,1.202,0.004,1.799,0.006
			c1.211-0.005,2.427-0.058,3.672-0.128c2.478-0.153,5.068-0.396,7.694-0.865c1.307-0.249,2.624-0.565,3.973-0.924
			c1.348-0.359,2.717-0.767,4.138-1.314c-1.015-0.729-2.067-1.317-3.126-1.862C465.482,492.107,464.416,491.611,463.342,491.163"/>
	</g>
	<g>
		<defs>
			<rect id="SVGID_80_" x="78.222" y="71.714" width="497.279" height="455.902"/>
		</defs>
		<clipPath id="SVGID_81_">
			<use xlink:href="#SVGID_80_"  overflow="visible"/>
		</clipPath>
		<path clip-path="url(#SVGID_81_)" fill="#C49A6C" d="M419.228,485.333c0.801-0.889,1.546-1.787,2.236-2.695
			c0.69-0.907,1.336-1.825,1.939-2.749c0.301-0.462,0.592-0.926,0.873-1.393c0.272-0.477,0.53-0.964,0.78-1.446
			c1.002-1.941,1.856-3.899,2.575-5.879c0.359-0.989,0.685-1.983,0.977-2.981c0.279-1.017,0.516-2.054,0.729-3.082
			c0.423-2.059,0.727-4.13,0.895-6.214c0.169-2.083,0.211-4.169,0.056-6.333c-0.134-2.14-0.424-4.29-0.882-6.452
			c-0.23-1.081-0.511-2.166-0.846-3.255c-0.333-1.09-0.712-2.183-1.221-3.288c-0.618,0.987-1.12,1.989-1.592,2.996
			c-0.471,1.011-0.912,2.018-1.307,3.048c-0.804,2.041-1.566,4.024-2.215,6.064c-0.327,1.018-0.646,2.026-0.937,3.06
			c-0.14,0.513-0.281,1.027-0.424,1.545c-0.145,0.499-0.288,1.001-0.435,1.505c-0.563,2.01-1.069,4.026-1.536,6.048
			c-0.883,4.106-1.715,8.03-2.204,12.036c-0.25,2-0.413,4.004-0.47,6.015c-0.021,1.012-0.021,2.004,0.02,2.998
			c0.04,0.995,0.114,1.995,0.313,3.017c0.505-0.408,0.977-0.822,1.422-1.241C418.417,486.227,418.826,485.776,419.228,485.333"/>
	</g>
	<g>
		<defs>
			<rect id="SVGID_82_" x="78.222" y="71.714" width="497.279" height="455.902"/>
		</defs>
		<clipPath id="SVGID_83_">
			<use xlink:href="#SVGID_82_"  overflow="visible"/>
		</clipPath>
		<path clip-path="url(#SVGID_83_)" fill="#C49A6C" d="M497.022,464.515c-2.362-0.605-4.712-1.063-7.044-1.388
			c-1.165-0.164-2.332-0.304-3.49-0.415c-1.174-0.127-2.351-0.231-3.518-0.311c-2.336-0.158-4.65-0.219-6.943-0.192
			c-1.148,0.016-2.287,0.052-3.427,0.107c-1.143,0.05-2.31,0.09-3.456,0.172c-2.299,0.156-4.577,0.413-6.841,0.787
			c-2.238,0.396-4.581,0.784-6.86,1.386c-1.147,0.296-2.292,0.638-3.439,1.031c-0.573,0.195-1.146,0.401-1.722,0.634
			c-0.59,0.211-1.183,0.446-1.78,0.714c0.96,0.727,1.952,1.313,2.958,1.859c1.013,0.551,2.027,1.032,3.054,1.461
			c2.057,0.854,4.17,1.552,6.343,2.106c4.34,1.117,8.939,1.76,13.586,1.799c2.341,0.035,4.729-0.033,7.171-0.229
			c2.443-0.19,4.841-0.621,7.329-1.146c1.238-0.267,2.489-0.572,3.753-0.925c1.266-0.347,2.543-0.739,3.791-1.223
			c1.258-0.475,2.513-1.022,3.786-1.622c1.271-0.601,2.553-1.256,3.853-2.072c-1.18-0.604-2.367-1.056-3.552-1.464
			C499.388,465.177,498.204,464.823,497.022,464.515"/>
	</g>
	<g>
		<defs>
			<rect id="SVGID_84_" x="78.222" y="71.714" width="497.279" height="455.902"/>
		</defs>
		<clipPath id="SVGID_85_">
			<use xlink:href="#SVGID_84_"  overflow="visible"/>
		</clipPath>
		<path clip-path="url(#SVGID_85_)" fill="#C49A6C" d="M450.652,463.979c0.617-1.044,1.179-2.09,1.684-3.138
			c0.995-2.106,1.854-4.164,2.431-6.35c0.604-2.158,1.057-4.313,1.366-6.459c0.151-1.078,0.285-2.139,0.354-3.229
			c0.063-1.097,0.099-2.184,0.102-3.271c0.002-2.174-0.113-4.336-0.365-6.488c-0.128-1.076-0.283-2.146-0.482-3.22
			c-0.215-1.088-0.468-2.175-0.752-3.254c-0.564-2.155-1.283-4.295-2.177-6.425c-0.448-1.063-0.947-2.125-1.502-3.183
			s-1.155-2.114-1.895-3.171c-0.472,1.023-0.816,2.052-1.125,3.089c-0.308,1.038-0.58,2.075-0.801,3.132
			c-0.206,1.04-0.413,2.086-0.623,3.144c-0.193,1.041-0.36,2.088-0.501,3.14c-0.299,2.094-0.472,4.25-0.635,6.365
			c-0.172,2.105-0.273,4.23-0.325,6.374c-0.024,1.068-0.032,2.144-0.026,3.222c0.016,1.063,0.031,2.137,0.046,3.228
			c0.046,2.135,0.162,4.283,0.363,6.446c0.197,2.163,0.496,4.341,0.914,6.533c0.214,1.102,0.462,2.198,0.74,3.283
			c0.282,1.09,0.604,2.185,1.06,3.293c0.423-0.498,0.812-0.997,1.17-1.499C450.021,465.022,450.342,464.5,450.652,463.979"/>
	</g>
	<g>
		<defs>
			<rect id="SVGID_86_" x="78.222" y="71.714" width="497.279" height="455.902"/>
		</defs>
		<clipPath id="SVGID_87_">
			<use xlink:href="#SVGID_86_"  overflow="visible"/>
		</clipPath>
		<path clip-path="url(#SVGID_87_)" fill="#C49A6C" d="M524.969,431.327c-2.459-0.208-4.88-0.271-7.263-0.205
			c-2.397,0.048-4.697,0.253-7.075,0.463c-2.355,0.226-4.688,0.536-6.991,0.918c-1.149,0.193-2.293,0.405-3.426,0.638
			c-1.149,0.246-2.288,0.488-3.415,0.729c-2.288,0.507-4.541,1.103-6.768,1.804c-1.118,0.343-2.202,0.738-3.321,1.129
			c-1.126,0.386-2.242,0.806-3.352,1.259c-1.109,0.457-2.21,0.959-3.304,1.511c-1.103,0.544-2.156,1.165-3.286,1.854
			c1.133,0.626,2.271,1.107,3.408,1.533c1.128,0.418,2.26,0.775,3.396,1.083c2.276,0.606,4.571,1.031,6.89,1.292
			c2.316,0.266,4.656,0.378,7.022,0.354c2.331-0.053,4.667-0.26,7.033-0.58c2.354-0.336,4.731-0.795,7.117-1.406
			c2.337-0.651,4.688-1.451,7.054-2.416c2.355-0.965,4.722-2.107,6.981-3.539c1.142-0.706,2.281-1.477,3.42-2.312
			c1.135-0.835,2.279-1.718,3.385-2.785c-1.279-0.403-2.534-0.648-3.786-0.854C527.439,431.588,526.198,431.433,524.969,431.327"/>
	</g>
	<g>
		<defs>
			<rect id="SVGID_88_" x="78.222" y="71.714" width="497.279" height="455.902"/>
		</defs>
		<clipPath id="SVGID_89_">
			<use xlink:href="#SVGID_88_"  overflow="visible"/>
		</clipPath>
		<path clip-path="url(#SVGID_89_)" fill="#C49A6C" d="M479.416,434.568c0.306-1.133,0.564-2.258,0.78-3.375
			c0.209-1.121,0.331-2.273,0.436-3.396c0.199-2.258,0.255-4.479,0.175-6.666c-0.021-0.546-0.049-1.09-0.086-1.633
			c-0.051-0.555-0.108-1.105-0.176-1.654c-0.133-1.097-0.297-2.185-0.49-3.265c-0.394-2.16-0.896-4.282-1.519-6.36
			c-0.305-1.034-0.665-2.076-1.073-3.117c-0.402-1.035-0.838-2.062-1.309-3.077c-0.938-2.031-2.026-4.021-3.283-5.97
			c-0.631-0.972-1.313-1.934-2.047-2.885c-0.734-0.952-1.512-1.887-2.432-2.809c-0.343,1.035-0.523,2.078-0.683,3.117
			c-0.154,1.041-0.262,2.082-0.328,3.128c-0.098,2.11-0.194,4.149-0.136,6.233c0.06,2.091,0.22,4.199,0.46,6.326
			c0.188,2.09,0.45,4.19,0.782,6.315c0.342,2.132,0.763,4.287,1.24,6.444c0.446,2.129,0.976,4.276,1.603,6.438
			c0.623,2.16,1.358,4.336,2.229,6.521c0.438,1.093,0.918,2.188,1.444,3.283c0.516,1.086,1.066,2.169,1.764,3.253
			c0.68-1.114,1.124-2.295,1.555-3.435C478.744,436.84,479.108,435.702,479.416,434.568"/>
	</g>
	<g>
		<defs>
			<rect id="SVGID_90_" x="78.222" y="71.714" width="497.279" height="455.902"/>
		</defs>
		<clipPath id="SVGID_91_">
			<use xlink:href="#SVGID_90_"  overflow="visible"/>
		</clipPath>
		<path clip-path="url(#SVGID_91_)" fill="#C49A6C" d="M549.84,392.88c-1.261,0.024-2.504,0.099-3.728,0.216
			c-2.445,0.237-4.831,0.613-7.158,1.104c-2.328,0.488-4.604,1.074-6.833,1.74c-2.269,0.646-4.516,1.362-6.712,2.146
			c-2.199,0.787-4.352,1.64-6.467,2.565c-2.175,0.892-4.305,1.863-6.386,2.935c-2.082,1.066-4.09,2.256-6.172,3.5
			c-1.024,0.635-2.035,1.311-3.028,2.031c-0.996,0.724-1.976,1.484-2.922,2.386c1.239,0.439,2.448,0.725,3.651,0.957
			c1.204,0.234,2.398,0.408,3.589,0.525c2.379,0.231,4.739,0.273,7.088,0.144c1.175-0.062,2.348-0.165,3.517-0.307
			c1.178-0.137,2.339-0.32,3.471-0.558c2.28-0.463,4.553-1.072,6.818-1.813c1.132-0.372,2.264-0.776,3.391-1.218
			c0.564-0.221,1.128-0.449,1.69-0.688c0.547-0.247,1.094-0.505,1.639-0.771c2.178-1.064,4.35-2.277,6.482-3.664
			c1.061-0.696,2.146-1.42,3.162-2.225c1.013-0.808,2.018-1.661,3.012-2.567c0.993-0.907,1.974-1.877,2.938-2.909
			c0.958-1.036,1.94-2.109,2.774-3.396C552.345,392.857,551.083,392.85,549.84,392.88"/>
	</g>
	<g>
		<defs>
			<rect id="SVGID_92_" x="78.222" y="71.714" width="497.279" height="455.902"/>
		</defs>
		<clipPath id="SVGID_93_">
			<use xlink:href="#SVGID_92_"  overflow="visible"/>
		</clipPath>
		<path clip-path="url(#SVGID_93_)" fill="#C49A6C" d="M501.837,404.275c0.247-2.314,0.193-4.645,0.007-6.895
			c-0.183-2.25-0.505-4.438-0.951-6.568c-0.507-2.162-1.146-4.269-1.885-6.313c-0.75-2.047-1.579-4.026-2.559-5.957
			c-1.02-1.951-2.152-3.837-3.416-5.657c-1.26-1.82-2.659-3.57-4.218-5.25c-0.779-0.839-1.607-1.656-2.487-2.455
			c-0.897-0.805-1.838-1.592-2.91-2.334c-0.088,1.098-0.15,2.119-0.132,3.157c0.011,1.034,0.068,2.062,0.169,3.086
			c0.102,1.024,0.237,2.047,0.405,3.07c0.165,1.021,0.3,2.012,0.498,3.021c0.378,2.012,0.878,4.033,1.457,6.063
			c0.293,0.998,0.59,2.007,0.889,3.024c0.301,1.002,0.622,2.01,0.961,3.02c0.684,2.017,1.442,4.048,2.291,6.087
			c0.427,0.999,0.859,2.011,1.299,3.04c0.446,1.007,0.916,2.018,1.413,3.03c0.991,2.021,2.104,4.049,3.356,6.067
			c0.628,1.01,1.303,2.019,2.022,3.021c0.722,1.002,1.485,2.001,2.388,2.972c0.42-1.253,0.688-2.472,0.907-3.674
			C501.563,406.626,501.727,405.442,501.837,404.275"/>
	</g>
	<g>
		<defs>
			<rect id="SVGID_94_" x="78.222" y="71.714" width="497.279" height="455.902"/>
		</defs>
		<clipPath id="SVGID_95_">
			<use xlink:href="#SVGID_94_"  overflow="visible"/>
		</clipPath>
		<path clip-path="url(#SVGID_95_)" fill="#C49A6C" d="M559.842,351.477c-2.329,0.688-4.587,1.498-6.767,2.41
			c-4.369,1.813-8.404,3.993-12.477,6.322c-2.005,1.178-3.962,2.408-5.86,3.705c-0.968,0.667-1.925,1.326-2.872,1.979
			c-0.958,0.674-1.899,1.365-2.828,2.08c-0.927,0.711-1.839,1.446-2.731,2.211c-0.895,0.764-1.757,1.559-2.674,2.354
			c-0.898,0.805-1.776,1.646-2.631,2.533c-0.854,0.886-1.688,1.808-2.465,2.859c1.292,0.211,2.531,0.276,3.755,0.293
			c1.223,0.018,2.428-0.025,3.616-0.123c2.376-0.195,4.704-0.576,6.987-1.127c1.142-0.271,2.278-0.584,3.397-0.936
			c1.097-0.359,2.184-0.758,3.261-1.193c2.155-0.869,4.269-1.885,6.353-3.025c1.041-0.572,2.074-1.18,3.099-1.82
			c1-0.648,1.971-1.339,2.94-2.063c1.936-1.449,3.825-3.047,5.662-4.807c0.459-0.438,0.916-0.887,1.366-1.349
			c0.431-0.468,0.857-0.946,1.279-1.438c0.844-0.979,1.67-2.007,2.477-3.081c0.806-1.074,1.589-2.211,2.341-3.404
			c0.369-0.6,0.756-1.205,1.087-1.85c0.33-0.642,0.646-1.311,0.944-2.017c-1.302,0.086-2.526,0.31-3.726,0.573
			S561.018,351.136,559.842,351.477"/>
	</g>
	<g>
		<defs>
			<rect id="SVGID_96_" x="78.222" y="71.714" width="497.279" height="455.902"/>
		</defs>
		<clipPath id="SVGID_97_">
			<use xlink:href="#SVGID_96_"  overflow="visible"/>
		</clipPath>
		<path clip-path="url(#SVGID_97_)" fill="#C49A6C" d="M518.683,370.588c-0.072-1.154-0.262-2.316-0.475-3.449
			c-0.212-1.134-0.459-2.24-0.74-3.326c-0.28-1.086-0.593-2.151-0.933-3.194c-0.339-1.043-0.705-2.063-1.154-3.083
			c-0.869-2.026-1.845-3.973-2.911-5.84c-2.089-3.715-4.77-7.194-7.844-10.293c-1.534-1.551-3.198-3.008-4.992-4.364
			c-0.89-0.675-1.864-1.331-2.87-1.954c-1.009-0.624-2.056-1.221-3.224-1.751c0.033,0.541,0.097,1.069,0.18,1.59
			c0.082,0.521,0.142,1.021,0.233,1.526c0.18,1.008,0.408,2.003,0.676,2.986c0.271,0.981,0.573,1.957,0.908,2.926
			c0.342,0.949,0.687,1.906,1.034,2.873c0.703,1.895,1.516,3.775,2.418,5.651c0.449,0.938,0.932,1.876,1.415,2.808
			c0.459,0.925,0.939,1.85,1.438,2.774c1.005,1.849,2.086,3.693,3.265,5.537c0.59,0.923,1.201,1.843,1.838,2.761
			c0.612,0.909,1.243,1.813,1.902,2.717c1.316,1.805,2.756,3.593,4.331,5.352c0.789,0.879,1.623,1.747,2.503,2.604
			c0.881,0.854,1.802,1.701,2.854,2.496c0.197-1.308,0.254-2.552,0.266-3.771C518.813,372.943,518.773,371.752,518.683,370.588"/>
	</g>
	<g>
		<defs>
			<rect id="SVGID_98_" x="78.222" y="71.714" width="497.279" height="455.902"/>
		</defs>
		<clipPath id="SVGID_99_">
			<use xlink:href="#SVGID_98_"  overflow="visible"/>
		</clipPath>
		<path clip-path="url(#SVGID_99_)" fill="#C49A6C" d="M568.607,306.547c-1.108,0.477-2.152,0.99-3.222,1.537
			c-2.111,1.102-4.125,2.307-6.051,3.598c-3.877,2.576-7.32,5.459-10.833,8.498c-1.721,1.523-3.387,3.094-4.991,4.719
			c-1.565,1.629-3.243,3.293-4.772,5.041c-1.557,1.738-2.995,3.566-4.404,5.487c-0.732,0.956-1.438,1.944-2.113,2.974
			c-0.677,1.026-1.328,2.086-1.898,3.262c1.294-0.032,2.509-0.194,3.699-0.406c1.19-0.21,2.355-0.475,3.493-0.787
			c2.273-0.634,4.463-1.438,6.58-2.398c2.147-0.954,4.09-2.082,6.031-3.332c1.929-1.252,3.793-2.639,5.604-4.145
			c0.896-0.757,1.815-1.537,2.648-2.361c0.836-0.823,1.661-1.678,2.46-2.567c1.601-1.778,3.126-3.692,4.569-5.756
			c0.741-1.028,1.382-2.103,2.01-3.216c0.628-1.115,1.23-2.271,1.805-3.471c0.571-1.201,1.11-2.453,1.612-3.762
			c0.523-1.305,0.928-2.66,1.237-4.15C570.84,305.629,569.709,306.073,568.607,306.547"/>
	</g>
	<g>
		<defs>
			<rect id="SVGID_100_" x="78.222" y="71.714" width="497.279" height="455.902"/>
		</defs>
		<clipPath id="SVGID_101_">
			<use xlink:href="#SVGID_100_"  overflow="visible"/>
		</clipPath>
		<path clip-path="url(#SVGID_101_)" fill="#C49A6C" d="M529.194,334.43c-0.64-2.261-1.471-4.408-2.385-6.435
			c-0.933-2.031-1.898-3.944-3.13-5.781c-1.191-1.833-2.466-3.563-3.813-5.202c-2.644-3.266-5.856-6.199-9.318-8.687
			c-1.738-1.247-3.58-2.378-5.536-3.388c-0.969-0.502-2.027-0.973-3.099-1.402c-1.075-0.43-2.184-0.829-3.396-1.139
			c0.248,1.062,0.611,2.047,0.928,3.011c0.336,0.963,0.715,1.905,1.133,2.827c0.42,0.92,0.871,1.828,1.351,2.722
			c0.481,0.896,1.009,1.778,1.485,2.646c0.987,1.733,2.081,3.436,3.265,5.112c0.593,0.838,1.214,1.672,1.853,2.501
			c0.643,0.83,1.233,1.646,1.884,2.461c1.285,1.629,2.65,3.243,4.104,4.835c1.441,1.591,3.031,3.167,4.592,4.688
			c1.585,1.527,3.286,3.015,5.12,4.449c0.919,0.718,1.879,1.414,2.883,2.093c1.003,0.676,2.045,1.335,3.209,1.921
			c-0.035-1.317-0.195-2.549-0.396-3.747C529.727,336.716,529.481,335.555,529.194,334.43"/>
	</g>
	<g>
		<defs>
			<rect id="SVGID_102_" x="78.222" y="71.714" width="497.279" height="455.902"/>
		</defs>
		<clipPath id="SVGID_103_">
			<use xlink:href="#SVGID_102_"  overflow="visible"/>
		</clipPath>
		<path clip-path="url(#SVGID_103_)" fill="#C49A6C" d="M544.933,284.987c-0.626,0.965-1.245,1.92-1.858,2.865
			c-0.62,0.969-1.222,1.951-1.801,2.947c-1.179,1.991-2.209,4.049-3.236,6.193c-0.531,1.072-1.031,2.174-1.498,3.308
			c-0.466,1.132-0.902,2.291-1.242,3.554c1.235-0.269,2.373-0.65,3.479-1.076c1.105-0.424,2.174-0.896,3.21-1.411
			c2.067-1.035,4.021-2.225,5.874-3.553c1.882-1.324,3.554-2.783,5.17-4.361c1.61-1.576,3.136-3.274,4.586-5.075
			c0.723-0.904,1.426-1.834,2.106-2.792c0.645-0.958,1.267-1.944,1.862-2.959c1.195-2.031,2.3-4.182,3.286-6.459
			c0.246-0.569,0.484-1.146,0.713-1.732c0.219-0.585,0.41-1.176,0.604-1.779c0.382-1.203,0.729-2.441,1.041-3.719
			c0.311-1.277,0.577-2.599,0.8-3.966c0.109-0.683,0.211-1.377,0.292-2.089c0.054-0.709,0.086-1.438,0.089-2.193
			c-1.104,0.531-2.089,1.166-3.039,1.824c-0.942,0.66-1.87,1.354-2.771,2.078c-1.789,1.451-3.467,2.989-5.046,4.598
			c-3.171,3.213-5.936,6.658-8.724,10.27C547.467,281.263,546.163,283.102,544.933,284.987"/>
	</g>
	<g>
		<defs>
			<rect id="SVGID_104_" x="78.222" y="71.714" width="497.279" height="455.902"/>
		</defs>
		<clipPath id="SVGID_105_">
			<use xlink:href="#SVGID_104_"  overflow="visible"/>
		</clipPath>
		<path clip-path="url(#SVGID_105_)" fill="#C49A6C" d="M532.938,296.948c-0.99-2.106-2.186-4.07-3.409-5.898
			c-0.619-0.915-1.257-1.801-1.912-2.656c-0.329-0.426-0.661-0.846-0.998-1.259c-0.346-0.413-0.716-0.817-1.079-1.214
			c-1.461-1.59-2.985-3.066-4.563-4.439c-0.788-0.684-1.592-1.345-2.402-1.977c-0.408-0.318-0.813-0.627-1.229-0.932
			c-0.431-0.302-0.862-0.597-1.301-0.885c-1.747-1.15-3.548-2.191-5.416-3.109c-1.864-0.922-3.803-1.713-5.826-2.361
			c-1.011-0.325-2.055-0.605-3.153-0.84c-1.093-0.237-2.207-0.434-3.406-0.526c0.203,0.504,0.43,0.985,0.671,1.45
			c0.214,0.469,0.445,0.922,0.684,1.37c0.479,0.896,0.991,1.758,1.541,2.597c0.552,0.836,1.13,1.653,1.737,2.45
			c0.604,0.776,1.212,1.56,1.829,2.351c1.237,1.539,2.581,3.022,4.003,4.465c0.711,0.723,1.444,1.435,2.196,2.138
			c0.715,0.705,1.446,1.401,2.198,2.09c1.507,1.375,3.089,2.722,4.756,4.026c1.662,1.306,3.438,2.57,5.198,3.785
			c1.782,1.215,3.675,2.369,5.688,3.447c1.007,0.537,2.051,1.047,3.133,1.53c1.083,0.482,2.2,0.94,3.421,1.302
			c-0.268-1.289-0.639-2.47-1.043-3.611C533.85,299.099,533.41,298.002,532.938,296.948"/>
	</g>
	<g>
		<defs>
			<rect id="SVGID_106_" x="78.222" y="71.714" width="497.279" height="455.902"/>
		</defs>
		<clipPath id="SVGID_107_">
			<use xlink:href="#SVGID_106_"  overflow="visible"/>
		</clipPath>
		<path clip-path="url(#SVGID_107_)" fill="#C49A6C" d="M538.347,247.108c-0.208,0.529-0.415,1.057-0.621,1.58
			c-0.403,1.059-0.788,2.125-1.15,3.205c-0.746,2.159-1.328,4.36-1.916,6.649c-0.307,1.147-0.578,2.317-0.811,3.514
			c-0.232,1.197-0.436,2.413-0.524,3.714c1.121-0.482,2.127-1.06,3.094-1.673c0.969-0.612,1.893-1.264,2.776-1.954
			c1.762-1.383,3.388-2.893,4.891-4.521c1.532-1.633,2.852-3.356,4.074-5.184c1.226-1.826,2.343-3.752,3.371-5.768
			c0.508-1.008,1.002-2.041,1.455-3.096c0.425-1.045,0.822-2.115,1.192-3.209c0.738-2.189,1.366-4.475,1.866-6.863
			c0.264-1.198,0.454-2.413,0.569-3.645c0.125-1.233,0.212-2.498,0.257-3.789c0.045-1.293,0.038-2.621-0.019-3.984
			c-0.037-1.371-0.199-2.745-0.492-4.208c-0.933,0.7-1.734,1.478-2.497,2.278c-0.771,0.803-1.471,1.617-2.183,2.476
			c-1.399,1.711-2.681,3.491-3.854,5.325c-2.368,3.668-4.299,7.499-6.253,11.513c-0.941,2.002-1.825,4.028-2.633,6.088
			C538.741,246.077,538.544,246.593,538.347,247.108"/>
	</g>
	<g>
		<defs>
			<rect id="SVGID_108_" x="78.222" y="71.714" width="497.279" height="455.902"/>
		</defs>
		<clipPath id="SVGID_109_">
			<use xlink:href="#SVGID_108_"  overflow="visible"/>
		</clipPath>
		<path clip-path="url(#SVGID_109_)" fill="#C49A6C" d="M529.833,259.395c-1.309-1.9-2.803-3.621-4.289-5.209
			c-0.75-0.793-1.512-1.554-2.285-2.28c-0.388-0.365-0.776-0.722-1.169-1.069c-0.409-0.344-0.825-0.68-1.241-1.008
			c-1.666-1.314-3.368-2.51-5.099-3.596c-3.416-2.176-7.173-3.871-10.985-5.073c-1.914-0.603-3.87-1.067-5.88-1.379
			c-0.996-0.157-2.063-0.255-3.119-0.313c-1.063-0.056-2.143-0.07-3.28,0.032c0.56,0.942,1.195,1.771,1.777,2.592
			c0.603,0.815,1.234,1.593,1.896,2.337c0.661,0.742,1.348,1.459,2.057,2.153c0.353,0.347,0.717,0.687,1.089,1.021
			c0.355,0.33,0.713,0.664,1.072,1c1.438,1.316,2.962,2.562,4.559,3.748c0.798,0.594,1.614,1.172,2.447,1.738
			c0.805,0.573,1.613,1.137,2.446,1.688c1.664,1.099,3.396,2.152,5.202,3.149c1.809,0.997,3.7,1.938,5.58,2.823
			c1.903,0.884,3.899,1.688,5.995,2.393c1.051,0.353,2.13,0.67,3.242,0.953c1.112,0.282,2.252,0.535,3.476,0.676
			c-0.489-1.22-1.058-2.315-1.646-3.367C531.088,261.352,530.472,260.348,529.833,259.395"/>
	</g>
	<g>
		<defs>
			<rect id="SVGID_110_" x="78.222" y="71.714" width="497.279" height="455.902"/>
		</defs>
		<clipPath id="SVGID_111_">
			<use xlink:href="#SVGID_110_"  overflow="visible"/>
		</clipPath>
		<path clip-path="url(#SVGID_111_)" fill="#C49A6C" d="M529.243,224.161c1.391-1.645,2.629-3.389,3.727-5.226
			c0.275-0.459,0.544-0.922,0.804-1.392c0.244-0.465,0.482-0.934,0.714-1.408c0.459-0.949,0.888-1.918,1.283-2.907
			c0.799-1.976,1.475-4.028,2.047-6.149c0.595-2.137,0.962-4.285,1.231-6.521c0.268-2.234,0.409-4.541,0.41-6.923
			c-0.011-2.372-0.303-4.765-0.709-7.269c-0.212-1.25-0.479-2.523-0.798-3.824c-0.314-1.301-0.765-2.578-1.313-3.942
			c-0.729,0.812-1.322,1.679-1.877,2.563c-0.555,0.883-1.063,1.783-1.532,2.699c-0.947,1.848-1.809,3.766-2.544,5.713
			c-0.74,1.947-1.392,3.932-1.966,5.941c-0.286,1.006-0.549,2.016-0.813,3.041c-0.282,1.035-0.547,2.075-0.797,3.12
			c-0.495,2.091-0.933,4.203-1.292,6.338c-0.33,2.123-0.718,4.328-0.982,6.554c-0.279,2.228-0.438,4.487-0.517,6.811
			c-0.069,1.175-0.104,2.365-0.101,3.578c0.005,1.211,0.044,2.438,0.201,3.73c0.961-0.66,1.796-1.393,2.588-2.154
			C527.803,225.773,528.545,224.981,529.243,224.161"/>
	</g>
	<g>
		<defs>
			<rect id="SVGID_112_" x="78.222" y="71.714" width="497.279" height="455.902"/>
		</defs>
		<clipPath id="SVGID_113_">
			<use xlink:href="#SVGID_112_"  overflow="visible"/>
		</clipPath>
		<path clip-path="url(#SVGID_113_)" fill="#C49A6C" d="M509.746,215.04c-1.799-1.035-3.608-1.949-5.422-2.758
			c-0.907-0.402-1.816-0.777-2.728-1.127c-0.929-0.34-1.878-0.645-2.812-0.927c-1.876-0.562-3.756-1.008-5.646-1.326
			c-1.894-0.319-3.78-0.508-5.725-0.526c-0.982-0.002-1.971,0.041-2.968,0.133c-0.998,0.092-2.001,0.225-3.037,0.484
			c0.681,0.873,1.45,1.602,2.151,2.334c0.709,0.731,1.438,1.418,2.188,2.068c1.493,1.299,3.087,2.463,4.704,3.544
			c1.579,1.103,3.223,2.113,4.926,3.052c1.699,0.938,3.489,1.793,5.21,2.639c1.753,0.832,3.562,1.602,5.43,2.303
			c0.938,0.35,1.888,0.68,2.854,0.992c0.48,0.15,0.97,0.302,1.46,0.453c0.477,0.146,0.959,0.291,1.443,0.438
			c1.941,0.566,3.957,1.032,6.051,1.381c1.048,0.174,2.119,0.309,3.213,0.404c1.095,0.094,2.21,0.152,3.382,0.088
			c-0.686-1.116-1.422-2.098-2.17-3.034s-1.511-1.819-2.286-2.653c-1.621-1.639-3.309-3.101-5.002-4.42
			C513.265,217.26,511.576,216.062,509.746,215.04"/>
	</g>
	<g>
		<defs>
			<rect id="SVGID_114_" x="78.222" y="71.714" width="497.279" height="455.902"/>
		</defs>
		<clipPath id="SVGID_115_">
			<use xlink:href="#SVGID_114_"  overflow="visible"/>
		</clipPath>
		<path clip-path="url(#SVGID_115_)" fill="#C49A6C" d="M512.637,188.688c0.978-1.8,1.789-3.67,2.454-5.604
			c1.266-3.825,1.928-7.866,2.164-12.099c0.065-1.067,0.066-2.119,0.029-3.178c-0.031-1.063-0.095-2.138-0.19-3.224
			c-0.193-2.169-0.508-4.396-0.999-6.647c-0.544-2.207-1.253-4.466-2.141-6.771c-0.445-1.155-0.945-2.325-1.503-3.51
			c-0.586-1.158-1.232-2.323-2.022-3.53c-0.516,0.86-0.892,1.757-1.229,2.664c-0.336,0.905-0.629,1.823-0.878,2.753
			c-0.479,1.844-0.916,3.793-1.204,5.736c-0.3,1.951-0.509,3.928-0.643,5.925c-0.13,1.995-0.175,4.004-0.242,6.089
			c-0.05,2.077-0.04,4.167,0.043,6.277c0.04,1.056,0.104,2.11,0.178,3.181c0.05,1.085,0.119,2.176,0.209,3.274
			c0.179,2.193,0.454,4.416,0.85,6.676c0.192,1.134,0.366,2.312,0.61,3.488c0.238,1.18,0.511,2.371,0.904,3.607
			c0.766-0.783,1.4-1.62,1.99-2.475C511.608,190.464,512.146,189.586,512.637,188.688"/>
	</g>
	<g>
		<defs>
			<rect id="SVGID_116_" x="78.222" y="71.714" width="497.279" height="455.902"/>
		</defs>
		<clipPath id="SVGID_117_">
			<use xlink:href="#SVGID_116_"  overflow="visible"/>
		</clipPath>
		<path clip-path="url(#SVGID_117_)" fill="#C49A6C" d="M481.634,179.223c-1.848-0.321-3.674-0.537-5.483-0.629
			c-1.822-0.088-3.58-0.078-5.417,0.146c-0.91,0.107-1.815,0.257-2.722,0.457c-0.903,0.199-1.806,0.438-2.714,0.805
			c0.81,0.783,1.637,1.438,2.467,2.059c0.798,0.646,1.604,1.244,2.425,1.804c1.639,1.112,3.32,2.089,5.046,2.955
			c1.652,0.915,3.377,1.707,5.133,2.421c0.879,0.355,1.77,0.691,2.668,1.007c0.889,0.304,1.785,0.608,2.689,0.917
			c3.56,1.186,7.307,2.076,11.199,2.598c1.908,0.285,3.868,0.459,5.88,0.504c1.006,0.021,2.026-0.002,3.062-0.066
			c1.035-0.066,2.083-0.169,3.161-0.404c-0.854-0.988-1.726-1.841-2.6-2.646c-0.882-0.802-1.734-1.571-2.647-2.255
			c-1.838-1.359-3.674-2.561-5.503-3.615c-0.914-0.53-1.827-1.027-2.736-1.493c-0.935-0.45-1.879-0.862-2.811-1.25
			c-1.869-0.774-3.725-1.435-5.563-1.995C485.357,179.967,483.481,179.543,481.634,179.223"/>
	</g>
	<g>
		<defs>
			<rect id="SVGID_118_" x="78.222" y="71.714" width="497.279" height="455.902"/>
		</defs>
		<clipPath id="SVGID_119_">
			<use xlink:href="#SVGID_118_"  overflow="visible"/>
		</clipPath>
		<path clip-path="url(#SVGID_119_)" fill="#C49A6C" d="M490.192,156.731c0.543-1.836,0.934-3.728,1.147-5.638
			c0.392-3.774,0.203-7.687-0.434-11.698c-0.328-2.002-0.854-3.951-1.476-5.957c-0.635-1.994-1.386-4.025-2.311-6.051
			c-0.958-1.986-2.079-3.994-3.376-6.025c-0.652-1.014-1.353-2.039-2.116-3.063c-0.789-0.995-1.627-1.995-2.61-3.012
			c-0.301,0.845-0.464,1.709-0.59,2.578c-0.126,0.871-0.206,1.746-0.246,2.631c-0.062,1.751-0.06,3.593,0.069,5.431
			c0.122,1.843,0.334,3.703,0.621,5.579c0.282,1.883,0.671,3.748,1.029,5.719c0.382,1.949,0.817,3.914,1.327,5.895
			c0.255,0.99,0.525,1.982,0.815,2.984c0.281,1.008,0.552,2.049,0.86,3.078c0.604,2.067,1.307,4.154,2.126,6.268
			c0.428,1.044,0.813,2.16,1.275,3.258c0.455,1.104,0.943,2.214,1.555,3.355c0.555-0.845,0.976-1.725,1.353-2.617
			C489.592,158.554,489.917,157.649,490.192,156.731"/>
	</g>
	<g>
		<defs>
			<rect id="SVGID_120_" x="78.222" y="71.714" width="497.279" height="455.902"/>
		</defs>
		<clipPath id="SVGID_121_">
			<use xlink:href="#SVGID_120_"  overflow="visible"/>
		</clipPath>
		<path clip-path="url(#SVGID_121_)" fill="#C49A6C" d="M454.332,150.922c-1.702,0.069-3.338,0.232-4.996,0.599
			c-0.822,0.177-1.633,0.394-2.431,0.655c-0.8,0.264-1.586,0.562-2.354,0.982c0.913,0.691,1.814,1.258,2.717,1.785
			c0.876,0.555,1.744,1.072,2.619,1.543c1.746,0.939,3.504,1.741,5.278,2.422c1.737,0.721,3.463,1.359,5.228,1.887
			c1.754,0.541,3.565,0.955,5.349,1.342c3.537,0.783,7.173,1.252,10.899,1.307c1.836,0.052,3.678,0.003,5.551-0.189
			c0.938-0.099,1.878-0.238,2.822-0.425c0.946-0.185,1.896-0.411,2.849-0.766c-0.985-0.849-1.964-1.563-2.934-2.234
			c-0.978-0.665-1.913-1.31-2.917-1.844c-1.976-1.091-3.918-2.035-5.825-2.845c-0.957-0.404-1.887-0.793-2.842-1.127
			c-0.964-0.323-1.915-0.623-2.856-0.898c-1.888-0.548-3.732-0.997-5.543-1.357c-1.789-0.377-3.635-0.584-5.403-0.727
			C457.766,150.896,456.029,150.854,454.332,150.922"/>
	</g>
	<g>
		<defs>
			<rect id="SVGID_122_" x="78.222" y="71.714" width="497.279" height="455.902"/>
		</defs>
		<clipPath id="SVGID_123_">
			<use xlink:href="#SVGID_122_"  overflow="visible"/>
		</clipPath>
		<path clip-path="url(#SVGID_123_)" fill="#C49A6C" d="M462.845,129.024c0.124-1.76,0.099-3.555-0.102-5.338
			c-0.428-3.518-1.431-7.072-2.875-10.646c-0.729-1.784-1.634-3.491-2.634-5.242c-1.01-1.739-2.145-3.483-3.422-5.224
			c-1.316-1.682-2.786-3.362-4.426-5.04c-0.821-0.836-1.705-1.66-2.636-2.489c-0.943-0.812-1.956-1.584-3.097-2.376
			c-0.097,0.763-0.061,1.531,0.013,2.302c0.072,0.771,0.188,1.545,0.343,2.323c0.317,1.549,0.712,3.185,1.23,4.797
			c0.509,1.625,1.101,3.272,1.77,4.929c0.668,1.656,1.417,3.315,2.167,5.067c0.769,1.731,1.59,3.478,2.481,5.238
			c0.446,0.88,0.91,1.763,1.393,2.649c0.472,0.903,0.942,1.832,1.445,2.752c0.996,1.848,2.088,3.711,3.29,5.594
			c0.617,0.929,1.206,1.933,1.862,2.912c0.649,0.987,1.334,1.979,2.136,2.99c0.341-0.845,0.551-1.707,0.716-2.574
			C462.666,130.78,462.779,129.905,462.845,129.024"/>
	</g>
	<g>
		<defs>
			<rect id="SVGID_124_" x="78.222" y="71.714" width="497.279" height="455.902"/>
		</defs>
		<clipPath id="SVGID_125_">
			<use xlink:href="#SVGID_124_"  overflow="visible"/>
		</clipPath>
		<path clip-path="url(#SVGID_125_)" fill="#C49A6C" d="M423.775,127.241c-0.729,0.201-1.437,0.438-2.121,0.713
			c-0.688,0.274-1.356,0.582-1.979,1c0.994,0.608,1.962,1.084,2.9,1.555c0.927,0.486,1.84,0.932,2.755,1.327
			c1.831,0.778,3.642,1.423,5.443,1.948c1.759,0.586,3.508,1.065,5.261,1.447c1.743,0.391,3.522,0.646,5.245,0.897
			c3.437,0.5,6.9,0.666,10.376,0.399c1.719-0.108,3.414-0.313,5.113-0.664c0.85-0.177,1.693-0.395,2.531-0.655
			c0.84-0.263,1.676-0.563,2.485-0.985c-1.09-0.699-2.146-1.275-3.185-1.814c-1.045-0.531-2.047-1.049-3.094-1.453
			c-2.063-0.838-4.063-1.549-6.001-2.146c-0.971-0.298-1.92-0.582-2.871-0.82c-0.963-0.225-1.911-0.427-2.846-0.606
			c-1.87-0.361-3.682-0.638-5.442-0.845c-1.744-0.223-3.496-0.299-5.183-0.307c-1.687-0.01-3.316,0.063-4.882,0.223
			C426.714,126.612,425.234,126.835,423.775,127.241"/>
	</g>
	<g>
		<defs>
			<rect id="SVGID_126_" x="78.222" y="71.714" width="497.279" height="455.902"/>
		</defs>
		<clipPath id="SVGID_127_">
			<use xlink:href="#SVGID_126_"  overflow="visible"/>
		</clipPath>
		<path clip-path="url(#SVGID_127_)" fill="#C49A6C" d="M431.775,108.463c-0.033-0.783-0.117-1.568-0.247-2.354
			c-0.267-1.572-0.688-3.141-1.249-4.706c-1.157-3.068-2.878-6.067-5-9.04c-1.056-1.506-2.289-2.87-3.615-4.267
			c-1.332-1.387-2.785-2.755-4.368-4.105c-1.582-1.346-3.363-2.561-5.271-3.812c-0.961-0.614-1.964-1.237-3.026-1.827
			c-1.054-0.61-2.177-1.158-3.435-1.683c0.082,0.619,0.287,1.232,0.528,1.846c0.243,0.615,0.529,1.222,0.838,1.865
			c0.634,1.267,1.377,2.554,2.218,3.861c1.667,2.631,3.731,5.212,5.905,8.092c1.104,1.417,2.263,2.85,3.487,4.298
			c1.301,1.534,2.576,3.037,3.828,4.51c1.335,1.545,2.761,3.106,4.298,4.682c0.764,0.797,1.534,1.644,2.358,2.472
			c0.818,0.832,1.673,1.67,2.641,2.517C431.799,110.033,431.81,109.249,431.775,108.463"/>
	</g>
	<g>
		<defs>
			<rect id="SVGID_128_" x="78.222" y="71.714" width="497.279" height="455.902"/>
		</defs>
		<clipPath id="SVGID_129_">
			<use xlink:href="#SVGID_128_"  overflow="visible"/>
		</clipPath>
		<path clip-path="url(#SVGID_129_)" fill="#C49A6C" d="M392.775,106.899c-0.585,0.24-1.146,0.506-1.639,0.865
			c1.075,0.51,2.086,0.926,3.057,1.361c0.975,0.422,1.94,0.779,2.888,1.113c1.883,0.671,3.75,1.156,5.521,1.637
			c1.773,0.484,3.518,0.863,5.238,1.148c1.719,0.291,3.44,0.449,5.089,0.631c3.325,0.304,6.615,0.257,9.79-0.159
			c1.57-0.175,3.112-0.466,4.619-0.884c0.753-0.209,1.494-0.459,2.221-0.75c0.728-0.289,1.441-0.615,2.105-1.051
			c-1.169-0.547-2.279-0.99-3.364-1.399c-1.089-0.406-2.137-0.798-3.188-1.112c-2.112-0.605-4.139-1.109-6.082-1.523
			c-1.944-0.42-3.807-0.771-5.651-0.967c-1.83-0.222-3.588-0.381-5.281-0.49c-3.357-0.26-6.584-0.103-9.443,0.224
			c-1.439,0.173-2.792,0.417-4.054,0.741C393.976,106.44,393.359,106.657,392.775,106.899"/>
	</g>
	<g>
		<defs>
			<rect id="SVGID_130_" x="78.222" y="71.714" width="497.279" height="455.902"/>
		</defs>
		<clipPath id="SVGID_131_">
			<use xlink:href="#SVGID_130_"  overflow="visible"/>
		</clipPath>
		<path clip-path="url(#SVGID_131_)" fill="#C49A6C" d="M368.851,80.146c1.093,1.225,2.218,2.323,3.385,3.297
			c2.325,1.962,4.775,3.517,7.338,4.813c2.565,1.29,5.229,2.328,8.119,3.068c1.438,0.379,2.948,0.666,4.549,0.881
			c0.802,0.1,1.615,0.203,2.488,0.244c0.851,0.069,1.757,0.087,2.737,0.04c-0.428-1.901-1.189-3.485-2.056-4.967
			c-0.886-1.455-1.898-2.779-3.016-3.957c-2.23-2.363-4.821-4.203-7.594-5.623c-2.778-1.41-5.753-2.392-8.907-2.837
			c-1.575-0.226-3.205-0.298-4.881-0.216c-1.687,0.111-3.399,0.329-5.251,0.963c0.471,0.858,0.968,1.628,1.49,2.319
			C367.769,78.883,368.309,79.521,368.851,80.146"/>
	</g>
</g>
</svg>
